<!-- Generated by IcoMoon.io -->
<svg version="1.1" xmlns="http://www.w3.org/2000/svg" width="24" height="24" viewBox="0 0 24 24">
<title>applepay</title>
<path d="M4.388 8.284c-0.282 0.337-0.732 0.602-1.182 0.564-0.056-0.455 0.164-0.938 0.422-1.237 0.282-0.346 0.774-0.591 1.172-0.611 0.047 0.474-0.136 0.938-0.412 1.284zM4.795 8.938c-0.651-0.038-1.21 0.375-1.518 0.375-0.315 0-0.788-0.356-1.304-0.346-0.67 0.010-1.293 0.393-1.635 1.005-0.704 1.222-0.183 3.033 0.496 4.028 0.333 0.493 0.732 1.033 1.257 1.014 0.496-0.019 0.693-0.327 1.293-0.327 0.605 0 0.778 0.327 1.304 0.318 0.543-0.010 0.885-0.493 1.218-0.986 0.38-0.56 0.535-1.104 0.544-1.133-0.010-0.010-1.050-0.412-1.060-1.625-0.009-1.015 0.82-1.498 0.858-1.526-0.468-0.702-1.2-0.778-1.453-0.797zM8.56 7.564v7.389h1.135v-2.526h1.57c1.434 0 2.442-0.996 2.442-2.436 0-1.441-0.989-2.427-2.404-2.427h-2.744zM9.695 8.531h1.308c0.984 0 1.546 0.53 1.546 1.464s-0.562 1.47-1.551 1.47h-1.304v-2.935zM15.779 15.009c0.713 0 1.374-0.364 1.674-0.943h0.023v0.887h1.050v-3.678c0-1.066-0.844-1.754-2.142-1.754-1.205 0-2.095 0.697-2.128 1.654h1.022c0.084-0.455 0.501-0.753 1.073-0.753 0.694 0 1.083 0.327 1.083 0.929v0.407l-1.416 0.086c-1.317 0.080-2.030 0.625-2.030 1.573 0 0.957 0.736 1.592 1.791 1.592zM16.084 14.133c-0.605 0-0.99-0.294-0.99-0.744 0-0.465 0.371-0.735 1.079-0.778l1.26-0.080v0.417c0 0.692-0.58 1.185-1.35 1.185zM19.928 16.963c1.106 0 1.626-0.427 2.080-1.721l1.992-5.65h-1.153l-1.336 4.365h-0.023l-1.336-4.365h-1.186l1.921 5.38-0.103 0.327c-0.173 0.554-0.454 0.767-0.956 0.767-0.089 0-0.262-0.010-0.333-0.019v0.887c0.066 0.019 0.347 0.028 0.432 0.028z"></path>
</svg>
