<!-- Generated by IcoMoon.io -->
<svg version="1.1" xmlns="http://www.w3.org/2000/svg" width="24" height="24" viewBox="0 0 24 24">
<title>blogger</title>
<path fill="#ff5722" d="M21.976 24h-19.95c-1.126 0-2.026-0.9-2.026-2.024v-19.95c0-1.126 0.9-2.026 2.025-2.026h20.025c1.050 0 1.95 0.9 1.95 2.025v19.95c0 1.125-0.9 2.025-2.024 2.025zM12 3.975h-3c-2.775 0-5.025 2.25-5.025 5.025v6c0 2.774 2.25 5.024 5.025 5.024h6c2.774 0 5.024-2.25 5.024-5.024v-3.975c0-0.6-0.45-1.050-1.050-1.050h-0.974c-0.524 0-0.976-0.45-0.976-0.976 0-2.776-2.25-5.026-5.024-5.026zM15.074 15.975h-6.074c-0.525 0-0.975-0.45-0.975-0.975s0.45-0.976 0.975-0.976h6.074c0.526 0 0.977 0.45 0.977 0.976s-0.45 0.976-0.975 0.976zM12.524 8.025c0.527 0 0.976 0.45 0.976 0.975s-0.45 0.975-0.975 0.975h-3.6c-0.525 0-0.976-0.45-0.976-0.975s0.45-0.975 0.975-0.975h3.6z"></path>
</svg>
