<!-- Generated by IcoMoon.io -->
<svg version="1.1" xmlns="http://www.w3.org/2000/svg" width="24" height="24" viewBox="0 0 24 24">
<title>googlepay</title>
<path d="M24 10l-3.134 7h-0.968l1.163-2.45-2.061-4.55h1.020l1.49 3.49h0.020l1.448-3.49zM10.983 12.166v2.834h-0.983v-7h2.607c0.018-0 0.040-0.001 0.062-0.001 0.623 0 1.193 0.23 1.628 0.609l-0.003-0.003c0.458 0.377 0.715 0.915 0.706 1.478 0 0.007 0 0.015 0 0.023 0 0.591-0.274 1.117-0.702 1.459l-0.004 0.003c-0.455 0.398-1.018 0.596-1.687 0.596h-1.624zM10.981 8.862v2.444h1.648c0.365 0.010 0.718-0.122 0.973-0.362 0.252-0.225 0.395-0.533 0.395-0.856 0-0.322-0.143-0.63-0.395-0.855-0.241-0.23-0.568-0.372-0.928-0.372-0.016 0-0.032 0-0.048 0.001l0.002-0h-1.648zM16.972 10c0.627 0 1.122 0.174 1.485 0.522 0.362 0.348 0.543 0.826 0.543 1.432v2.893h-0.811v-0.652h-0.037c-0.351 0.537-0.818 0.805-1.4 0.805-0.498 0-0.914-0.153-1.25-0.46-0.309-0.275-0.502-0.673-0.502-1.117 0-0.012 0-0.023 0-0.035l-0 0.002c0-0.485 0.177-0.871 0.53-1.158s0.825-0.43 1.415-0.431c0.503 0 0.918 0.096 1.243 0.287v-0.201c0-0.003 0-0.007 0-0.011 0-0.306-0.135-0.581-0.349-0.768l-0.001-0.001c-0.21-0.199-0.495-0.322-0.808-0.322-0.003 0-0.007 0-0.010 0h0.001c-0.474 0-0.849 0.208-1.124 0.623l-0.747-0.488c0.41-0.613 1.018-0.92 1.823-0.92zM15.875 13.41c-0 0.002-0 0.005-0 0.007 0 0.231 0.11 0.436 0.28 0.567l0.002 0.001c0.187 0.153 0.42 0.234 0.659 0.23 0.357-0.001 0.7-0.15 0.953-0.412 0.26-0.24 0.422-0.583 0.422-0.963 0-0.001 0-0.003 0-0.004v0c-0.265-0.22-0.633-0.329-1.106-0.329-0.345 0-0.632 0.087-0.862 0.26-0.232 0.174-0.348 0.387-0.348 0.643zM4.081 8c0.015-0 0.033-0 0.050-0 1.035 0 1.977 0.396 2.683 1.045l-0.003-0.003-1.164 1.142c-0.399-0.372-0.936-0.6-1.526-0.6-0.014 0-0.028 0-0.042 0l0.002-0c-1.058 0.007-1.956 0.687-2.286 1.633l-0.005 0.017c-0.081 0.228-0.128 0.492-0.128 0.766s0.047 0.538 0.133 0.782l-0.005-0.016c0.335 0.963 1.233 1.643 2.29 1.65h0.001c0.551 0 1.023-0.138 1.39-0.381 0.429-0.28 0.723-0.72 0.814-1.217h-2.204v-1.54h3.849c0.047 0.269 0.070 0.54 0.070 0.813 0 1.217-0.444 2.247-1.214 2.943-0.676 0.612-1.604 0.966-2.705 0.966-0.005 0-0.011 0-0.017 0-1.57 0-2.933-0.884-3.618-2.182l-0.011-0.022c-0.274-0.522-0.435-1.14-0.435-1.796s0.161-1.274 0.445-1.818l-0.010 0.022c0.696-1.32 2.060-2.204 3.629-2.204 0.006 0 0.011 0 0.017 0h-0.001z"></path>
</svg>
