<!-- Generated by IcoMoon.io -->
<svg version="1.1" xmlns="http://www.w3.org/2000/svg" width="24" height="24" viewBox="0 0 24 24">
<title>messenger</title>
<path fill="#00b2ff" d="M0 11.64c0-6.69 5.24-11.64 12-11.64s12 4.95 12 11.64-5.24 11.64-12 11.64c-1.21 0-2.38-0.16-3.47-0.46-0.075-0.021-0.161-0.033-0.25-0.033-0.141 0-0.276 0.031-0.396 0.085l0.006-0.002-2.39 1.050c-0.115 0.052-0.249 0.083-0.39 0.083-0.521 0-0.945-0.415-0.96-0.932l-0-0.001-0.070-2.14c-0.012-0.27-0.132-0.511-0.319-0.679l-0.001-0.001c-2.314-2.093-3.761-5.106-3.761-8.458 0-0.054 0-0.107 0.001-0.16l-0 0.008zM8.32 9.45l-3.52 5.6c-0.35 0.53 0.32 1.14 0.82 0.75l3.79-2.87c0.26-0.2 0.6-0.2 0.87 0l2.8 2.1c0.84 0.63 2.040 0.4 2.6-0.48l3.52-5.6c0.35-0.53-0.32-1.13-0.82-0.75l-3.79 2.87c-0.25 0.2-0.6 0.2-0.86 0l-2.8-2.1c-0.298-0.227-0.676-0.364-1.085-0.364-0.64 0-1.201 0.334-1.521 0.836l-0.004 0.007z"></path>
</svg>
