<!-- Generated by IcoMoon.io -->
<svg version="1.1" xmlns="http://www.w3.org/2000/svg" width="24" height="24" viewBox="0 0 24 24">
<title>mix</title>
<path fill="#ff8126" d="M4.8 6.1v15.15c0 1.35-1.050 2.35-2.4 2.35s-2.4-1.050-2.4-2.35v-21.25h24v13.35c0 1.3-1.1 2.35-2.4 2.35-1.35 0-2.45-1.050-2.45-2.35v-1.2c0-1.35-1.050-2.35-2.4-2.35-1.137 0-2.121 0.803-2.35 1.875v3.825c0 1.35-1.1 2.35-2.4 2.35-1.35 0-2.4-1.050-2.4-2.35v-9.25c0-1.3-1.1-2.35-2.4-2.35-0.002 0-0.005-0-0.008-0-1.255 0-2.285 0.963-2.391 2.191l-0.001 0.009z"></path>
</svg>
