<!-- Generated by IcoMoon.io -->
<svg version="1.1" xmlns="http://www.w3.org/2000/svg" width="24" height="24" viewBox="0 0 24 24">
<title>pinterest</title>
<path fill="#bd081c" d="M12.017 0c-6.621 0-11.988 5.367-11.988 11.987 0 5.079 3.158 9.417 7.618 11.162-0.105-0.949-0.199-2.403 0.041-3.439 0.219-0.937 1.406-5.957 1.406-5.957s-0.359-0.72-0.359-1.781c0-1.663 0.967-2.911 2.168-2.911 1.024 0 1.518 0.769 1.518 1.688 0 1.029-0.653 2.567-0.992 3.992-0.285 1.193 0.6 2.165 1.775 2.165 2.128 0 3.768-2.245 3.768-5.487 0-2.861-2.063-4.869-5.008-4.869-3.41 0-5.409 2.562-5.409 5.199 0 1.033 0.394 2.143 0.889 2.741 0.099 0.12 0.112 0.225 0.085 0.345-0.090 0.375-0.293 1.199-0.334 1.363-0.053 0.225-0.172 0.271-0.401 0.165-1.495-0.69-2.433-2.878-2.433-4.646 0-3.776 2.748-7.252 7.92-7.252 4.158 0 7.392 2.967 7.392 6.923 0 4.135-2.607 7.462-6.233 7.462-1.214 0-2.354-0.629-2.758-1.379l-0.749 2.848c-0.269 1.045-1.004 2.352-1.498 3.146 1.123 0.345 2.306 0.535 3.55 0.535 6.607 0 11.985-5.365 11.985-11.987 0-6.623-5.378-11.987-11.985-11.987l0.032-0.026z"></path>
</svg>
