<!-- Generated by IcoMoon.io -->
<svg version="1.1" xmlns="http://www.w3.org/2000/svg" width="24" height="24" viewBox="0 0 24 24">
<title>reddit</title>
<path fill="#ff4500" d="M2.204 14.049c-0.060 0.276-0.091 0.56-0.091 0.847 0 3.443 4.402 6.249 9.814 6.249 5.41 0 9.812-2.804 9.812-6.249 0-0.274-0.029-0.546-0.082-0.809l-0.015-0.032c-0.021-0.055-0.029-0.11-0.029-0.165-0.302-1.175-1.117-2.241-2.296-3.103-0.045-0.016-0.088-0.039-0.126-0.070-0.026-0.020-0.045-0.042-0.067-0.064-1.792-1.234-4.356-2.008-7.196-2.008-2.815 0-5.354 0.759-7.146 1.971-0.014 0.018-0.029 0.033-0.049 0.049-0.039 0.033-0.084 0.060-0.13 0.075-1.206 0.862-2.042 1.937-2.354 3.123 0 0.058-0.014 0.114-0.037 0.171l-0.008 0.015zM11.977 19.49c-1.794 0-3.057-0.389-3.863-1.197-0.173-0.174-0.173-0.457 0-0.632 0.176-0.165 0.46-0.165 0.635 0 0.63 0.629 1.685 0.943 3.228 0.943 1.542 0 2.591-0.3 3.219-0.929 0.165-0.164 0.45-0.164 0.629 0 0.165 0.18 0.165 0.465 0 0.645-0.809 0.808-2.065 1.198-3.862 1.198l0.014-0.028zM8.371 11.917c-0.914 0-1.677 0.765-1.677 1.677 0 0.91 0.763 1.65 1.677 1.65s1.651-0.74 1.651-1.65c0-0.912-0.739-1.677-1.651-1.677zM15.604 11.917c-0.914 0-1.678 0.765-1.678 1.677 0 0.91 0.764 1.65 1.678 1.65s1.651-0.74 1.651-1.65c0-0.912-0.739-1.677-1.651-1.677zM20.152 10.322c1.037 0.833 1.8 1.821 2.189 2.904 0.45-0.336 0.719-0.864 0.719-1.449 0-1.002-0.815-1.816-1.818-1.816-0.399 0-0.778 0.129-1.090 0.363v-0.002zM2.711 9.963c-1.003 0-1.817 0.816-1.817 1.818 0 0.543 0.239 1.048 0.644 1.389 0.401-1.079 1.172-2.053 2.213-2.876-0.302-0.21-0.663-0.329-1.039-0.329v-0.002zM11.928 22.042c-5.906 0-10.709-3.205-10.709-7.142 0-0.275 0.023-0.544 0.068-0.809-0.793-0.493-1.287-1.362-1.287-2.314 0-1.496 1.227-2.713 2.725-2.713 0.674 0 1.303 0.246 1.797 0.682 1.856-1.191 4.357-1.941 7.112-1.992l1.812-5.524 0.404 0.095s0.016 0 0.016 0.002l4.223 0.993c0.344-0.798 1.138-1.36 2.065-1.36 1.229 0 2.231 1.004 2.231 2.234 0 1.232-1.003 2.234-2.231 2.234s-2.23-1.004-2.23-2.23l-3.851-0.912-1.467 4.477c2.65 0.105 5.047 0.854 6.844 2.021 0.494-0.464 1.144-0.719 1.833-0.719 1.498 0 2.718 1.213 2.718 2.711 0 0.987-0.54 1.886-1.378 2.365 0.029 0.255 0.059 0.494 0.059 0.749-0.015 3.938-4.806 7.143-10.72 7.143l-0.034 0.009zM20.107 2.855c-0.74 0-1.34 0.599-1.34 1.338 0 0.738 0.6 1.34 1.34 1.34 0.732 0 1.33-0.6 1.33-1.334s-0.598-1.332-1.347-1.332l0.017-0.012z"></path>
</svg>
