<!-- Generated by IcoMoon.io -->
<svg version="1.1" xmlns="http://www.w3.org/2000/svg" width="24" height="24" viewBox="0 0 24 24">
<title>wechat</title>
<path fill="#7bb32e" d="M23.541 12.748c-0.609-1.38-1.758-2.476-3.092-3.151-2.354-1.192-5.281-1.185-7.629 0.030-1.631 0.837-2.993 2.337-3.379 4.162-0.318 1.344-0.033 2.791 0.68 3.961 1.061 1.762 2.979 2.887 4.971 3.248 1.443 0.293 2.936 0.119 4.338-0.285 0.842 0.326 1.592 0.854 2.408 1.246-0.211-0.707-0.436-1.406-0.676-2.102 0.916-0.65 1.746-1.461 2.244-2.479 0.744-1.415 0.789-3.171 0.135-4.63zM13.617 3.282c-2.495-1.404-5.602-1.615-8.286-0.645-1.764 0.635-3.36 1.815-4.346 3.42-0.895 1.45-1.23 3.258-0.799 4.917 0.433 1.84 1.711 3.383 3.262 4.413-0.3 0.85-0.585 1.699-0.855 2.555 0.975-0.51 1.95-1.043 2.926-1.561 1.17 0.375 2.415 0.559 3.66 0.518-0.33-0.943-0.405-1.965-0.255-2.951 0.225-1.371 0.975-2.625 1.994-3.554 1.726-1.615 4.171-2.296 6.496-2.131-0.436-2.135-1.936-3.939-3.824-4.98h0.027zM15.35 13.271c-0.209 0.652-1.156 0.848-1.615 0.352-0.506-0.459-0.309-1.418 0.355-1.623 0.734-0.31 1.582 0.537 1.26 1.271zM20.145 13.363c-0.256 0.586-1.141 0.723-1.576 0.27-0.209-0.191-0.27-0.479-0.344-0.73 0.104-0.458 0.42-0.933 0.93-0.955 0.705-0.098 1.336 0.773 0.975 1.416h0.015zM12.99 6.909c0.008 0.961-1.275 1.561-1.995 0.909-0.747-0.535-0.535-1.837 0.342-2.106 0.785-0.315 1.713 0.344 1.651 1.185l0.002 0.012zM6.931 7.153c-0.172 0.835-1.291 1.238-1.946 0.678-0.759-0.535-0.546-1.861 0.345-2.131 0.873-0.336 1.865 0.55 1.601 1.453z"></path>
</svg>
