<svg width="408" height="183" viewBox="0 0 408 183" fill="none" xmlns="http://www.w3.org/2000/svg">
<path d="M316.2 0C291.72 0 268.6 9.52416 252.11 26.0214L204 68.71L178.16 91.5H178.33L132.6 132.148C121.72 143.033 107.27 148.985 91.8 148.985C60.01 148.985 34.17 123.304 34.17 91.5C34.17 59.6961 60.01 34.0149 91.8 34.0149C107.27 34.0149 121.72 39.9675 133.28 51.5325L152.49 68.54L178.16 45.75L156.74 26.8717C139.4 9.52416 116.28 0 91.8 0C41.14 0 0 41.158 0 91.5C0 141.842 41.14 183 91.8 183C116.28 183 139.4 173.476 155.89 156.979L204 114.46L204.17 114.63L229.84 91.5H229.67L275.4 50.8522C286.28 39.9675 300.73 34.0149 316.2 34.0149C347.99 34.0149 373.83 59.6961 373.83 91.5C373.83 123.304 347.99 148.985 316.2 148.985C300.9 148.985 286.28 143.033 274.72 131.467L255.34 114.29L229.67 137.08L251.26 156.128C268.6 173.306 291.55 182.83 316.2 182.83C366.86 182.83 408 141.842 408 91.3299C408 40.8178 366.86 0 316.2 0V0Z" fill="white"/>
</svg>
