<svg width="400" height="400" xmlns="http://www.w3.org/2000/svg">
 <!-- Created with Method Draw - http://github.com/duopixel/Method-Draw/ -->

 <g>
  <title>background</title>
  <rect x="-1" y="-1" width="402" height="402" id="canvas_background" fill="none"/>
  <g id="canvasGrid" display="none">
   <rect id="svg_2" width="100%" height="100%" x="0" y="0" stroke-width="0" fill="url(#gridpattern)"/>
  </g>
 </g>
 <g>
  <title>Layer 1</title>
  <text fill="#ffffff" stroke-width="0" x="38.960462" y="126.306681" id="svg_1" font-size="16" font-family="Helvetica, Arial, sans-serif" text-anchor="start" xml:space="preserve" transform="matrix(8.877940710240807,0,0,7.727033814411879,-343.1057372941802,-803.7192024884686) " stroke="#000">NEAN</text>
  <g id="svg_28" stroke="null">
   <g id="svg_7" transform="matrix(0.4799371329329169,0,0,0.4799371329329169,-183.02602786785428,-27.716240023264618) " stroke="null">
    <g id="svg_8" stroke="null">
     <path d="m651.04236,553.3198l143.857,61.572c1.015,0.443 2.099,0.654 3.185,0.654s2.165,-0.222 3.185,-0.654l143.854,-61.572c3.037,-1.303 4.983,-4.311 4.914,-7.615c-0.068,-3.306 -2.136,-6.23299 -5.221,-7.403l-143.858,-54.713c-1.859,-0.709 -3.905,-0.709 -5.759,0l-143.853,54.712c-3.085,1.17 -5.152,4.103 -5.224,7.403c-0.068,3.299 1.88,6.318 4.92,7.616zm147.037,-53.495l122.233,46.48801l-122.233,52.32l-122.235,-52.319l122.235,-46.489l0,-0.00001z" id="svg_9" stroke="null" fill="#ffffff"/>
     <path d="m651.04236,588.3588l147.037,62.936l147.034,-62.936c4.118,-1.761 6.022,-6.523 4.261,-10.634c-1.756,-4.103 -6.502,-6.03 -10.631,-4.261l-140.664,60.212l-140.669,-60.212c-4.116,-1.764 -8.873,0.153 -10.634,4.261c-1.761,4.116 0.151,8.873 4.266,10.634z" id="svg_10" stroke="null" fill="#ffffff"/>
     <path d="m651.04236,620.75581l147.037,62.93799l147.034,-62.93799c4.118,-1.761 6.022,-6.51801 4.261,-10.631c-1.756,-4.103 -6.502,-6.033 -10.631,-4.261l-140.664,60.212l-140.669,-60.211c-4.116,-1.762 -8.873,0.152 -10.634,4.261c-1.761,4.113 0.151,8.869 4.266,10.63z" id="svg_11" stroke="null" fill="#ffffff"/>
     <path d="m651.04236,653.1568l147.037,62.938l147.034,-62.938c4.118,-1.76199 6.022,-6.519 4.261,-10.63199c-1.756,-4.103 -6.502,-6.021 -10.631,-4.261l-140.664,60.212l-140.669,-60.212c-4.116,-1.761 -8.873,0.153 -10.634,4.261c-1.761,4.113 0.151,8.87 4.266,10.63199z" id="svg_12" stroke="null" fill="#ffffff"/>
    </g>
   </g>
   <g id="svg_13" transform="matrix(0.4799371329329169,0,0,0.4799371329329169,-183.02602786785428,-27.716240023264618) " stroke="null"/>
   <g id="svg_14" transform="matrix(0.4799371329329169,0,0,0.4799371329329169,-183.02602786785428,-27.716240023264618) " stroke="null"/>
   <g id="svg_15" transform="matrix(0.4799371329329169,0,0,0.4799371329329169,-183.02602786785428,-27.716240023264618) " stroke="null"/>
   <g id="svg_16" transform="matrix(0.4799371329329169,0,0,0.4799371329329169,-183.02602786785428,-27.716240023264618) " stroke="null"/>
   <g id="svg_17" transform="matrix(0.4799371329329169,0,0,0.4799371329329169,-183.02602786785428,-27.716240023264618) " stroke="null"/>
   <g id="svg_18" transform="matrix(0.4799371329329169,0,0,0.4799371329329169,-183.02602786785428,-27.716240023264618) " stroke="null"/>
   <g id="svg_19" transform="matrix(0.4799371329329169,0,0,0.4799371329329169,-183.02602786785428,-27.716240023264618) " stroke="null"/>
   <g id="svg_20" transform="matrix(0.4799371329329169,0,0,0.4799371329329169,-183.02602786785428,-27.716240023264618) " stroke="null"/>
   <g id="svg_21" transform="matrix(0.4799371329329169,0,0,0.4799371329329169,-183.02602786785428,-27.716240023264618) " stroke="null"/>
   <g id="svg_22" transform="matrix(0.4799371329329169,0,0,0.4799371329329169,-183.02602786785428,-27.716240023264618) " stroke="null"/>
   <g id="svg_23" transform="matrix(0.4799371329329169,0,0,0.4799371329329169,-183.02602786785428,-27.716240023264618) " stroke="null"/>
   <g id="svg_24" transform="matrix(0.4799371329329169,0,0,0.4799371329329169,-183.02602786785428,-27.716240023264618) " stroke="null"/>
   <g id="svg_25" transform="matrix(0.4799371329329169,0,0,0.4799371329329169,-183.02602786785428,-27.716240023264618) " stroke="null"/>
   <g id="svg_26" transform="matrix(0.4799371329329169,0,0,0.4799371329329169,-183.02602786785428,-27.716240023264618) " stroke="null"/>
   <g id="svg_27" transform="matrix(0.4799371329329169,0,0,0.4799371329329169,-183.02602786785428,-27.716240023264618) " stroke="null"/>
  </g>
 </g>
</svg>