<svg version="1.1" xmlns="http://www.w3.org/2000/svg" width="768" height="768" viewBox="0 0 768 768" fill="#fff"><path d="M587.991 564.009c-48.078 0-93.279-18.72-127.275-52.716l-76.716-76.712-76.707 76.702c-33.999 34.002-79.2 52.725-127.28 52.725-48.088 0-93.292-18.723-127.291-52.725-33.999-34-52.722-79.203-52.722-127.284s18.723-93.285 52.722-127.285c34.001-33.999 79.206-52.722 127.285-52.722 48.081 0 93.285 18.723 127.284 52.722l76.709 76.707 76.707-76.707c33.999-33.999 79.203-52.724 127.284-52.724 48.084 0 93.288 18.724 127.283 52.724 34.003 34 52.726 79.204 52.726 127.285 0 48.084-18.723 93.286-52.725 127.283-33.995 34.002-79.198 52.727-127.284 52.727zM511.29 460.716c20.492 20.482 47.73 31.766 76.701 31.764 28.976 0 56.219-11.283 76.707-31.772 20.487-20.492 31.773-47.733 31.773-76.709s-11.284-56.217-31.773-76.706c-20.49-20.488-47.73-31.773-76.707-31.773-28.974 0-56.217 11.283-76.708 31.773l-76.701 76.706 76.709 76.716zM180.009 275.522c-28.976 0-56.217 11.283-76.706 31.773-20.49 20.489-31.773 47.73-31.773 76.706 0 28.974 11.283 56.215 31.773 76.707 20.49 20.487 47.731 31.773 76.706 31.773 28.976 0 56.217-11.283 76.704-31.772l76.707-76.709-76.707-76.706c-20.488-20.49-47.73-31.774-76.704-31.773v0z"></path></svg>