<svg width="400" height="400" xmlns="http://www.w3.org/2000/svg">
 <!-- Created with Method Draw - http://github.com/duopixel/Method-Draw/ -->

 <g>
  <title>background</title>
  <rect fill="none" id="canvas_background" height="402" width="402" y="-1" x="-1"/>
  <g display="none" overflow="visible" y="0" x="0" height="100%" width="100%" id="canvasGrid">
   <rect fill="url(#gridpattern)" stroke-width="0" y="0" x="0" height="100%" width="100%"/>
  </g>
 </g>
 <g>
  <title>Layer 1</title>
  <text stroke="#000" transform="matrix(8.877940710240807,0,0,7.727033814411879,-343.1057372941802,-803.7192024884686) " xml:space="preserve" text-anchor="start" font-family="Helvetica, Arial, sans-serif" font-size="16" id="svg_1" y="126.306681" x="38.960462" stroke-width="0" fill="#673ab7">NEAN</text>
  <g stroke="null" id="svg_28">
   <g stroke="null" transform="matrix(0.4799371329329169,0,0,0.4799371329329169,-183.02602786785428,-27.716240023264618) " id="svg_7">
    <g stroke="null" id="svg_8">
     <path fill="#673ab7" stroke="null" id="svg_9" d="m651.042358,553.319805l143.857,61.572c1.015,0.443 2.099,0.654 3.185,0.654s2.165,-0.222 3.185,-0.654l143.854,-61.572c3.037,-1.303 4.983,-4.311 4.914,-7.615c-0.068,-3.306 -2.136,-6.233 -5.221,-7.403l-143.858,-54.713c-1.859,-0.709 -3.905,-0.709 -5.759,0l-143.853,54.712c-3.085,1.17 -5.152,4.103 -5.224,7.403c-0.068,3.299 1.88,6.318 4.92,7.616zm147.037,-53.495l122.233,46.488l-122.233,52.32l-122.235,-52.319l122.235,-46.489z"/>
     <path fill="#673ab7" stroke="null" id="svg_10" d="m651.042358,588.358805l147.037,62.936l147.034,-62.936c4.118,-1.761 6.022,-6.523 4.261,-10.634c-1.756,-4.103 -6.502,-6.03 -10.631,-4.261l-140.664,60.212l-140.669,-60.212c-4.116,-1.764 -8.873,0.153 -10.634,4.261c-1.761,4.116 0.151,8.873 4.266,10.634z"/>
     <path fill="#673ab7" stroke="null" id="svg_11" d="m651.042358,620.755805l147.037,62.938l147.034,-62.938c4.118,-1.761 6.022,-6.518 4.261,-10.631c-1.756,-4.103 -6.502,-6.033 -10.631,-4.261l-140.664,60.212l-140.669,-60.211c-4.116,-1.762 -8.873,0.152 -10.634,4.261c-1.761,4.113 0.151,8.869 4.266,10.63z"/>
     <path fill="#673ab7" stroke="null" id="svg_12" d="m651.042358,653.156805l147.037,62.938l147.034,-62.938c4.118,-1.762 6.022,-6.519 4.261,-10.632c-1.756,-4.103 -6.502,-6.021 -10.631,-4.261l-140.664,60.212l-140.669,-60.212c-4.116,-1.761 -8.873,0.153 -10.634,4.261c-1.761,4.113 0.151,8.87 4.266,10.632z"/>
    </g>
   </g>
   <g stroke="null" transform="matrix(0.4799371329329169,0,0,0.4799371329329169,-183.02602786785428,-27.716240023264618) " id="svg_13"/>
   <g stroke="null" transform="matrix(0.4799371329329169,0,0,0.4799371329329169,-183.02602786785428,-27.716240023264618) " id="svg_14"/>
   <g stroke="null" transform="matrix(0.4799371329329169,0,0,0.4799371329329169,-183.02602786785428,-27.716240023264618) " id="svg_15"/>
   <g stroke="null" transform="matrix(0.4799371329329169,0,0,0.4799371329329169,-183.02602786785428,-27.716240023264618) " id="svg_16"/>
   <g stroke="null" transform="matrix(0.4799371329329169,0,0,0.4799371329329169,-183.02602786785428,-27.716240023264618) " id="svg_17"/>
   <g stroke="null" transform="matrix(0.4799371329329169,0,0,0.4799371329329169,-183.02602786785428,-27.716240023264618) " id="svg_18"/>
   <g stroke="null" transform="matrix(0.4799371329329169,0,0,0.4799371329329169,-183.02602786785428,-27.716240023264618) " id="svg_19"/>
   <g stroke="null" transform="matrix(0.4799371329329169,0,0,0.4799371329329169,-183.02602786785428,-27.716240023264618) " id="svg_20"/>
   <g stroke="null" transform="matrix(0.4799371329329169,0,0,0.4799371329329169,-183.02602786785428,-27.716240023264618) " id="svg_21"/>
   <g stroke="null" transform="matrix(0.4799371329329169,0,0,0.4799371329329169,-183.02602786785428,-27.716240023264618) " id="svg_22"/>
   <g stroke="null" transform="matrix(0.4799371329329169,0,0,0.4799371329329169,-183.02602786785428,-27.716240023264618) " id="svg_23"/>
   <g stroke="null" transform="matrix(0.4799371329329169,0,0,0.4799371329329169,-183.02602786785428,-27.716240023264618) " id="svg_24"/>
   <g stroke="null" transform="matrix(0.4799371329329169,0,0,0.4799371329329169,-183.02602786785428,-27.716240023264618) " id="svg_25"/>
   <g stroke="null" transform="matrix(0.4799371329329169,0,0,0.4799371329329169,-183.02602786785428,-27.716240023264618) " id="svg_26"/>
   <g stroke="null" transform="matrix(0.4799371329329169,0,0,0.4799371329329169,-183.02602786785428,-27.716240023264618) " id="svg_27"/>
  </g>
 </g>
</svg>