<svg xmlns="http://www.w3.org/2000/svg" viewBox="0 0 125.43 78.39">
    <defs>
        <style>
            .a{fill:#f9f9f9;}.b{fill:#004a98;}.c{fill:#fff;}
        </style>
    </defs>
    <title>
        Diners Club
    </title>
    <rect width="125.43" height="78.39" class="a" rx="4.18" ry="4.18"/>
    <path d="M65.72,42.76c7.08,0,13.55-5.78,13.55-12.85,0-7.74-6.47-13.08-13.55-13.08h-6.1A12.79,12.79,0,0,0,46.54,29.91,13,13,0,0,0,59.62,42.76Z" class="b"/>
    <path d="M62.34,36.79v-14a7.52,7.52,0,0,1,0,14m-10.22-7a7.55,7.55,0,0,1,4.83-7v14a7.54,7.54,0,0,1-4.83-7M59.65,17.9A11.87,11.87,0,1,0,71.51,29.77,11.87,11.87,0,0,0,59.65,17.9" class="c"/>
    <path d="M33.28,51.61c0,1,.76,1.17,1.43,1.17,3,0,3.93-2.23,3.93-4.27a4.12,4.12,0,0,0-4.29-4.42,9.79,9.79,0,0,0-1.07.06Zm-1.34-6.43c0-1.24-.65-1.15-1.26-1.17v-.35c.53,0,1.08,0,1.62,0l2.37,0c3.55,0,5.48,2.37,5.48,4.79,0,1.36-.79,4.77-5.65,4.77l-2,0-1.84,0v-.35c.82-.09,1.22-.11,1.26-1Z" class="b"/>
    <path d="M42.1,44.85a.68.68,0,1,1,0-1.35.67.67,0,0,1,.67.66.69.69,0,0,1-.67.69m-1.47,8h.26c.38,0,.66,0,.66-.46V48.7c0-.6-.21-.69-.72-1v-.22A15.38,15.38,0,0,0,42.3,47a.45.45,0,0,1,.25-.07c.07,0,.1.08.1.19v5.26c0,.46.3.46.68.46h.23v.35l-1.44,0-1.49,0Z" class="b"/>
    <path d="M44.87,48.78c0-.51-.16-.64-.8-.9v-.26A17.67,17.67,0,0,0,45.88,47s.08,0,.08.14V48a4,4,0,0,1,2.37-1c1.17,0,1.58.85,1.58,1.92v3.53c0,.46.3.46.69.46h.24v.35l-1.45,0-1.48,0v-.35h.25c.38,0,.65,0,.65-.46V48.87c0-.79-.48-1.17-1.26-1.17a3.66,3.66,0,0,0-1.59.66v4c0,.46.3.46.69.46h.25v.35l-1.46,0-1.48,0v-.35h.25c.38,0,.66,0,.66-.46Z" class="b"/>
    <path d="M54.31,49c.34,0,.38-.18.38-.34A1.16,1.16,0,0,0,53.5,47.4c-.83,0-1.41.61-1.57,1.6Zm-2.43.44a4.77,4.77,0,0,0,0,.8,2.3,2.3,0,0,0,2,2.37,2.67,2.67,0,0,0,1.85-.92l.19.19a3.2,3.2,0,0,1-2.53,1.55c-2.18,0-2.62-2.11-2.62-3,0-2.69,1.81-3.48,2.77-3.48a2.17,2.17,0,0,1,2.31,2.15,2.09,2.09,0,0,1,0,.25l-.12.08Z" class="b"/>
    <path d="M56.19,52.87h.37c.38,0,.66,0,.66-.46V48.56c0-.42-.51-.5-.72-.61v-.21c1-.43,1.55-.78,1.68-.78s.12,0,.12.18v1.23h0c.34-.53.92-1.41,1.75-1.41a.75.75,0,0,1,.78.72.66.66,0,0,1-.64.7c-.43,0-.43-.32-.91-.32a1.15,1.15,0,0,0-1,1.13v3.22c0,.46.28.46.66.46h.77v.35l-1.92,0-1.63,0Z" class="b"/>
    <path d="M61.47,51.32A1.8,1.8,0,0,0,63.19,53c.81,0,1.11-.49,1.11-1,0-1.62-3-1.1-3-3.31A1.88,1.88,0,0,1,63.44,47a3.5,3.5,0,0,1,1.56.4l.1,1.39h-.32a1.39,1.39,0,0,0-1.49-1.35,1,1,0,0,0-1.07.9c0,1.61,3.18,1.11,3.18,3.26,0,.91-.73,1.87-2.36,1.87A3.53,3.53,0,0,1,61.37,53l-.15-1.57Z" class="b"/>
    <path d="M77.78,46.14h-.34c-.26-1.61-1.4-2.25-2.94-2.25s-3.86,1-3.86,4.34c0,2.77,2,4.76,4.08,4.76a2.79,2.79,0,0,0,2.76-2.37l.31.08-.31,2a7.68,7.68,0,0,1-3,.73,4.88,4.88,0,0,1-5.24-5.16,5,5,0,0,1,5.2-4.82,9.84,9.84,0,0,1,3.23.73Z" class="b"/>
    <path d="M78.27,52.87h.26c.39,0,.66,0,.66-.46V44.78c0-.89-.2-.92-.73-1.07v-.22a8.6,8.6,0,0,0,1.42-.59,1.53,1.53,0,0,1,.3-.15c.08,0,.11.08.11.19v9.47c0,.46.3.46.68.46h.23v.35l-1.43,0-1.5,0Z" class="b"/>
    <path d="M87.07,52.47c0,.25.15.26.39.26H88V53a13.79,13.79,0,0,0-2,.42l-.07,0V52.28a3.69,3.69,0,0,1-2.42,1.15A1.48,1.48,0,0,1,82,51.8V48.29c0-.36-.06-.7-.82-.77v-.26c.49,0,1.59-.1,1.76-.1s.16.1.16.4V51.1c0,.41,0,1.59,1.19,1.59A3.1,3.1,0,0,0,86,51.85V48.16c0-.27-.66-.42-1.15-.56v-.24c1.23-.09,2-.2,2.13-.2s.11.1.11.25Z" class="b"/>
    <path d="M89.8,51.67a1.47,1.47,0,0,0,1.41,1.4c1.47,0,2.09-1.44,2.09-2.66a2.62,2.62,0,0,0-2.2-2.71,2.15,2.15,0,0,0-1.3.64Zm0-3.72a3.45,3.45,0,0,1,2-1,2.67,2.67,0,0,1,2.55,2.88,3.46,3.46,0,0,1-3.27,3.59A4.06,4.06,0,0,1,89.21,53l-.41.31-.29-.15a15.06,15.06,0,0,0,.2-2.44V44.78c0-.89-.21-.92-.73-1.07v-.22a8.44,8.44,0,0,0,1.41-.59,1.53,1.53,0,0,1,.3-.15c.08,0,.11.08.11.19Z" class="b"/>
    <path d="M30.66,61.19h.11c.27,0,.55,0,.55-.42V56.86c0-.39-.28-.42-.55-.42h-.11v-.23l1.11,0,1.17,0v.23h-.11c-.26,0-.55,0-.55.42v3.91c0,.39.29.42.55.42h.11v.23l-1.18,0c-.37,0-.81,0-1.1,0Z" class="b"/>
    <path d="M32.91,61.39v-.16h-.08c-.26,0-.58,0-.58-.46V56.86c0-.41.32-.46.58-.46h.08v-.16l-1.14,0c-.36,0-.78,0-1.07,0v.16h.07c.26,0,.58.05.58.46v3.91c0,.41-.32.46-.58.46H30.7v.16l1.06,0,1.15,0m0,.06-1.18,0c-.37,0-.8,0-1.1,0h0v-.29h.14c.27,0,.51,0,.52-.39V56.86c0-.36-.25-.39-.52-.39h-.14v-.29h0l1.11,0,1.17,0h0v.29h-.14c-.27,0-.51,0-.51.39v3.91c0,.36.24.38.51.39H33v.29Z" class="b"/>
    <path d="M38.06,60l0,0V57.14a.62.62,0,0,0-.65-.7h-.17v-.23l1.05,0c.3,0,.61,0,.92,0v.23h-.11c-.32,0-.67.06-.67.94v3.4a6,6,0,0,0,0,.75h-.28l-3.84-4.28v3.07c0,.65.13.87.7.87h.13v.23l-1,0-1,0v-.23h.11c.51,0,.67-.35.67-.94V57.11a.67.67,0,0,0-.68-.67h-.1v-.23c.28,0,.57,0,.86,0l.66,0Z" class="b"/>
    <path d="M38.05,59.93Zm0,0,0,0Zm.15,1.55h.25a4.23,4.23,0,0,1,0-.72v-3.4c0-.89.37-1,.7-1h.07v-.16c-.29,0-.58,0-.88,0s-.68,0-1,0v.16h.13a.65.65,0,0,1,.68.74V60h0l0,0-3.32-3.75c-.22,0-.43,0-.66,0s-.56,0-.83,0v.16h.07a.71.71,0,0,1,.71.71v3.14c0,.59-.17,1-.7,1h-.08v.16l1,0c.31,0,.62,0,.92,0v-.16h-.09c-.59,0-.73-.26-.73-.91V57.16Zm.29.06h-.31L34.4,57.33v3c0,.65.11.83.67.84h.16v.29h0l-1,0-1,0h0v-.29h.14c.49,0,.63-.32.64-.91V57.11a.65.65,0,0,0-.65-.64h-.13v-.29h0c.29,0,.58,0,.86,0s.44,0,.69,0l3.28,3.69V57.14c0-.6-.41-.67-.62-.67h-.2v-.29h0c.36,0,.7,0,1.05,0s.61,0,.92,0h0v.29h-.14c-.31,0-.63,0-.64.91v3.4a4.31,4.31,0,0,0,.05.74v0Z" class="b"/>
    <path d="M40.34,56.58c-.56,0-.58.14-.69.68h-.22c0-.21.06-.41.09-.63s0-.42,0-.63h.18c.06.22.25.21.45.21H44c.2,0,.38,0,.4-.23l.18,0c0,.2-.06.4-.08.6s0,.41,0,.61l-.22.08c0-.27-.06-.72-.56-.72H42.52v4c0,.58.26.64.62.64h.14v.23l-1.21,0c-.45,0-1,0-1.27,0v-.23H41c.41,0,.62,0,.62-.62v-4Z" class="b"/>
    <path d="M43.28,61.45l-1.21,0c-.45,0-1,0-1.27,0h0v-.29H41c.41,0,.57,0,.58-.59v-4H40.34v-.07H41.6v4c0,.6-.24.66-.65.66h-.11v.15l1.23,0,1.18,0v-.15h-.11c-.36,0-.65-.09-.65-.68v-4h1.26c.5,0,.56.43.58.71l.16-.06c0-.2,0-.39,0-.59s0-.38.08-.57l-.11,0c0,.22-.25.23-.44.22H40.15c-.18,0-.37,0-.43-.21h-.13c0,.2,0,.4,0,.6s-.06.4-.08.6h.15c.1-.52.17-.69.72-.68v.07c-.55,0-.54.1-.66.65v0h-.29v0c0-.21.07-.42.09-.64a4.21,4.21,0,0,0,.05-.62v0h.23v0c0,.19.19.19.38.19H44c.21,0,.36,0,.38-.2v0h0l.21,0v0c0,.2-.06.4-.08.6s0,.4,0,.6v0h0l-.26.1V57.3c0-.28-.05-.68-.52-.68H42.56v3.93c0,.57.22.6.58.61h.17v.29Z" class="b"/>
    <path d="M44.86,61.19H45c.27,0,.55,0,.55-.42V56.86c0-.39-.28-.42-.55-.42h-.1v-.23c.45,0,1.23,0,1.85,0l1.91,0c0,.32,0,.82,0,1.14l-.23.06c0-.48-.12-.87-.91-.87h-1v2h.88c.45,0,.55-.25.59-.65h.23q0,.44,0,.87c0,.28,0,.57,0,.85l-.23,0c0-.45-.06-.74-.58-.74h-.89V60.6c0,.49.43.49.9.49.9,0,1.3-.06,1.52-.91l.21,0c-.1.4-.19.79-.25,1.19l-2,0c-.67,0-1.56,0-2,0Z" class="b"/>
    <path d="M48.82,61.38c.06-.37.15-.75.24-1.12l-.15,0c-.22.83-.65.91-1.53.9-.47,0-.94,0-1-.52V58.84h.93c.52,0,.57.3.61.73l.16,0c0-.27,0-.55,0-.82s0-.56,0-.84H48c0,.39-.16.66-.62.66h-.92v-2H47.5c.78,0,.91.39.94.86l.16,0c0-.21,0-.48,0-.73s0-.25,0-.36l-1.88,0c-.61,0-1.37,0-1.82,0v.16H45c.27,0,.58.05.58.46v3.91c0,.41-.31.46-.58.46h-.07v.15l2,0,2,0m0,.07-2,0c-.67,0-1.56,0-2,0h0v-.29H45c.27,0,.52,0,.52-.39V56.86c0-.36-.25-.39-.52-.39h-.14v-.29h0c.45,0,1.23,0,1.85,0l1.91,0h0v0c0,.12,0,.25,0,.39s0,.54,0,.75v0h0l-.26.07v0c-.05-.48-.11-.83-.88-.84h-1v1.89h.85c.43,0,.51-.22.56-.63v0h.29v0q0,.44,0,.87c0,.28,0,.57,0,.85v0h0l-.26.06v0c0-.46,0-.71-.55-.71H46.5v1.7c0,.46.39.46.88.46.89,0,1.25-.05,1.48-.89v0h0l.24.06v0c-.1.39-.19.79-.25,1.18v0Z" class="b"/>
    <path d="M51.06,58.73h.36c.75,0,1.15-.28,1.15-1.16a1,1,0,0,0-1.09-1.09,3.05,3.05,0,0,0-.42,0Zm-1-1.73c0-.54-.3-.56-.53-.56h-.14v-.23c.24,0,.7,0,1.16,0s.8,0,1.2,0c.94,0,1.77.25,1.77,1.32a1.4,1.4,0,0,1-1,1.31l1.27,1.91a.83.83,0,0,0,.73.44v.23c-.25,0-.49,0-.74,0l-.7,0A21.75,21.75,0,0,1,51.55,59h-.49v1.6c0,.57.27.59.61.59h.14v.23l-1.29,0c-.36,0-.71,0-1.08,0v-.23h.14c.27,0,.53-.12.53-.4Z" class="b"/>
    <path d="M51.42,58.7c.74,0,1.12-.26,1.12-1.13a1,1,0,0,0-1.06-1.06,2.79,2.79,0,0,0-.39,0V58.7Zm-.36.06h0V56.48h0a3.05,3.05,0,0,1,.42,0,1.06,1.06,0,0,1,1.13,1.12c0,.89-.43,1.19-1.19,1.19Zm0,.21h.52a22,22,0,0,0,1.52,2.41l.7,0,.7,0v-.16a.83.83,0,0,1-.71-.46l-1.3-1.94h0a1.37,1.37,0,0,0,1-1.28c0-1-.8-1.28-1.74-1.29-.4,0-.75,0-1.2,0s-.88,0-1.13,0v.16h.11c.23,0,.56,0,.56.6v3.79c0,.3-.28.44-.56.44h-.11v.15l1.05,0,1.25,0v-.15h-.1c-.34,0-.64,0-.64-.63V59Zm3.48,2.48c-.25,0-.49,0-.74,0s-.46,0-.72,0A20.27,20.27,0,0,1,51.53,59h-.44V60.6c0,.56.24.55.58.56h.17v.29h0l-1.28,0c-.35,0-.7,0-1.08,0h0v-.29h.17c.26,0,.49-.12.49-.37V57c0-.53-.26-.52-.49-.53h-.17v-.29h0c.24,0,.7,0,1.16,0s.8,0,1.2,0c.94,0,1.8.26,1.81,1.35a1.42,1.42,0,0,1-1,1.32l1.25,1.88a.79.79,0,0,0,.7.43h0v.28Z" class="b"/>
    <path d="M59.6,60V57.14a.61.61,0,0,0-.65-.7H58.8v-.23c.35,0,.69,0,1.05,0l.91,0v.23h-.11c-.31,0-.66.06-.66.94v3.4a6,6,0,0,0,0,.75h-.28l-3.84-4.28v3.07c0,.65.12.87.7.87h.13v.23l-1,0-1,0v-.23h.1c.52,0,.68-.35.68-.94V57.11a.67.67,0,0,0-.68-.67h-.1v-.23c.28,0,.57,0,.86,0l.66,0Z" class="b"/>
    <path d="M59.58,59.93Zm0,0,0,0Zm.15,1.55H60a5.58,5.58,0,0,1,0-.72v-3.4c0-.89.38-1,.7-1h.08v-.16l-.88,0c-.35,0-.68,0-1,0v.16H59a.66.66,0,0,1,.69.74V60h0l0,0-3.32-3.75-.66,0c-.28,0-.56,0-.83,0v.16h.07a.71.71,0,0,1,.71.71v3.14c0,.59-.17,1-.71,1h-.07v.15l1,0,.93,0v-.15h-.09c-.59,0-.74-.26-.74-.91V57.16Zm.28.06h-.31l-3.78-4.22v3c0,.65.11.83.67.84h.16v.29h0l-1,0-1,0h0v-.29h.14c.49,0,.64-.32.64-.91V57.11a.64.64,0,0,0-.64-.64h-.14v-.29h0l.86,0c.22,0,.43,0,.68,0l3.28,3.69V57.14c0-.6-.4-.67-.62-.67h-.19v-.29h0l1.05,0,.91,0h0v.29h-.15c-.31,0-.62,0-.63.91v3.4a5.7,5.7,0,0,0,0,.74v0Z" class="b"/>
    <path d="M63.05,57.05h0l-.7,2.11h1.4ZM62,60.35a3.3,3.3,0,0,0-.16.58c0,.23.31.26.56.26h.08v.23q-.45,0-.9,0t-.81,0v-.23h.05a.67.67,0,0,0,.64-.48l1.2-3.42a6.58,6.58,0,0,0,.28-.93,3.83,3.83,0,0,0,.67-.32h.06s0,0,.06,0,0,.13.06.18l1.37,3.91c.09.26.18.53.28.76a.47.47,0,0,0,.49.29h0v.23c-.34,0-.67,0-1,0l-1.12,0v-.23h.08c.17,0,.47,0,.47-.21a2.18,2.18,0,0,0-.16-.54l-.29-.86H62.2Z" class="b"/>
    <path d="M63,57.06h0Zm-.63,2.07h1.3l-.65-2Zm-.09.06L63,57h0v0h0v0h0l.71,2.18Zm1.52,2.19,1.09,0,1,0v-.15h0a.51.51,0,0,1-.52-.32c-.1-.23-.19-.5-.28-.76l-1.37-3.91-.06-.18h-.07a2.9,2.9,0,0,1-.66.3,8.22,8.22,0,0,1-.28.93l-1.19,3.42a.72.72,0,0,1-.68.51h0v.15l.78,0,.87,0v-.15h0c-.25,0-.59,0-.59-.3a3.36,3.36,0,0,1,.16-.59h0l.25-.8h1.74l.3.89a2.44,2.44,0,0,1,.15.55c0,.23-.33.24-.5.25h0Zm2.12.07c-.34,0-.67,0-1,0l-1.12,0h0v-.29h.11c.17,0,.43,0,.43-.18a2.1,2.1,0,0,0-.15-.53l-.28-.84H62.22l-.23.75a3.81,3.81,0,0,0-.16.57c0,.19.28.23.53.23h.11v.29h0l-.9,0-.81,0h0v-.29h.08a.63.63,0,0,0,.61-.46l1.2-3.42a9.56,9.56,0,0,0,.3-1,3.83,3.83,0,0,0,.67-.32l.07,0a.09.09,0,0,1,.08,0,1.34,1.34,0,0,1,.07.18l1.38,3.91a6.54,6.54,0,0,0,.27.75.44.44,0,0,0,.46.28H66v.29Z" class="b"/>
    <path d="M66.27,56.58c-.56,0-.59.14-.7.68h-.22c0-.21.07-.41.09-.63a4.44,4.44,0,0,0,0-.63h.18c.06.22.25.21.45.21H70c.2,0,.39,0,.4-.23l.18,0c0,.2-.06.4-.08.6s0,.41,0,.61l-.22.08c0-.27,0-.72-.55-.72H68.45v4c0,.58.26.64.61.64h.14v.23l-1.21,0c-.45,0-1,0-1.26,0v-.23h.14c.41,0,.62,0,.62-.62v-4Z" class="b"/>
    <path d="M69.2,61.45l-1.21,0c-.45,0-1,0-1.26,0h0v-.29h.18c.41,0,.58,0,.59-.59v-4H66.27v-.07h1.25v4c0,.6-.24.66-.65.66h-.11v.16c.29,0,.8,0,1.23,0l1.18,0v-.16h-.11c-.36,0-.65-.09-.65-.68v-4h1.26c.5,0,.56.43.58.71l.16-.06a5.82,5.82,0,0,1,0-.59c0-.19,0-.38.07-.57l-.11,0c0,.22-.25.23-.43.22H66.07c-.17,0-.36,0-.43-.21h-.12c0,.2,0,.4,0,.6s-.06.41-.08.6h.16c.09-.52.16-.69.72-.68v.07c-.56,0-.55.1-.67.65v0h-.29v0c0-.21.06-.42.08-.63a3.35,3.35,0,0,0,0-.63v0h.24v0c.06.19.19.19.38.19H70c.2,0,.36,0,.37-.2v0h0l.21,0v0c0,.2-.06.4-.08.6s0,.4,0,.6v0h0l-.26.1V57.3c0-.28,0-.68-.52-.68H68.48v3.93c0,.57.23.6.58.61h.18v.29Z" class="b"/>
    <path d="M70.82,61.19h.1c.27,0,.55,0,.55-.42V56.86c0-.39-.28-.42-.55-.42h-.1v-.23c.29,0,.73,0,1.1,0l1.17,0v.23H73c-.27,0-.56,0-.56.42v3.91c0,.39.29.42.56.42h.1v.23l-1.18,0-1.09,0Z" class="b"/>
    <path d="M73.06,61.38v-.15H73c-.27,0-.59,0-.59-.46V56.86c0-.41.32-.46.59-.46h.07v-.16l-1.14,0c-.36,0-.78,0-1.07,0v.16h.07c.26,0,.58.05.58.46v3.91c0,.41-.32.46-.58.46h-.07v.15l1.06,0,1.15,0m0,.07-1.18,0-1.09,0h0v-.29h.14c.27,0,.52,0,.52-.39V56.86c0-.36-.25-.39-.52-.39h-.14v-.29h0c.29,0,.73,0,1.1,0l1.17,0h0v.29H73c-.28,0-.52,0-.53.39v3.91c0,.36.25.39.53.39h.13v.29Z" class="b"/>
    <path d="M76.18,61.2c1.45,0,1.7-1.27,1.7-2.36s-.59-2.41-1.83-2.41-1.69,1.16-1.69,2.16c0,1.34.61,2.61,1.82,2.61m-.12-5.1a2.62,2.62,0,0,1,2.86,2.57,2.74,2.74,0,0,1-2.82,2.86,2.63,2.63,0,0,1-2.79-2.68,2.71,2.71,0,0,1,2.75-2.75" class="b"/>
    <path d="M74.32,58.59c0-1,.4-2.19,1.73-2.19s1.86,1.34,1.86,2.44-.26,2.39-1.73,2.39v-.06c1.42,0,1.66-1.24,1.66-2.33s-.58-2.38-1.79-2.38-1.66,1.14-1.66,2.13c0,1.33.61,2.58,1.79,2.58v.06c-1.24,0-1.85-1.3-1.86-2.64m-1,.26a2.74,2.74,0,0,1,2.78-2.78v.06a2.69,2.69,0,0,0-2.72,2.72A2.61,2.61,0,0,0,76.1,61.5a2.71,2.71,0,0,0,2.79-2.83,2.58,2.58,0,0,0-2.83-2.54v-.06A2.64,2.64,0,0,1,79,58.67a2.76,2.76,0,0,1-2.85,2.89,2.67,2.67,0,0,1-2.82-2.71" class="b"/>
    <path d="M84,60V57.14a.61.61,0,0,0-.65-.7h-.16v-.23c.35,0,.69,0,1,0s.62,0,.92,0v.23H85c-.31,0-.66.06-.66.94v3.4a4.53,4.53,0,0,0,0,.75H84.1l-3.84-4.28v3.07c0,.65.12.87.7.87h.12v.23l-1,0-1,0v-.23h.1c.52,0,.67-.35.67-.94V57.11a.66.66,0,0,0-.67-.67h-.1v-.23l.85,0c.23,0,.44,0,.67,0Z" class="b"/>
    <path d="M83.93,59.93Zm0,0,0,0Zm.15,1.55h.24a5.58,5.58,0,0,1,0-.72v-3.4c0-.89.38-1,.7-1h.08v-.16c-.29,0-.59,0-.89,0s-.67,0-1,0v.16h.13a.66.66,0,0,1,.68.74V60h0l0,0-3.32-3.75c-.22,0-.44,0-.67,0l-.82,0v.16h.07a.71.71,0,0,1,.7.71v3.14c0,.59-.16,1-.7,1h-.07v.15l1,0,.93,0v-.15H81c-.59,0-.74-.26-.74-.91V57.16Zm.28.06h-.31l-3.78-4.22v3c0,.65.11.83.67.84h.16v.29h0l-1,0-1,0h0v-.29h.14c.49,0,.64-.32.64-.91V57.11a.64.64,0,0,0-.64-.64h-.14v-.29h0l.85,0c.23,0,.44,0,.69,0l3.28,3.69V57.14c0-.6-.4-.67-.62-.67h-.19v-.29h0c.35,0,.7,0,1,0s.61,0,.92,0h0v.29H85c-.31,0-.63,0-.63.91v3.4a4.35,4.35,0,0,0,0,.74v0Z" class="b"/>
    <path d="M87.4,57.05h0l-.7,2.11h1.4Zm-1.09,3.3a3.3,3.3,0,0,0-.16.58c0,.23.31.26.56.26h.08v.23c-.3,0-.61,0-.9,0s-.54,0-.81,0v-.23h0a.67.67,0,0,0,.65-.48L87,57.29a6.52,6.52,0,0,0,.27-.93,3.63,3.63,0,0,0,.68-.32H88s0,0,0,0,0,.13.07.18l1.37,3.91c.09.26.18.53.28.76a.47.47,0,0,0,.49.29h.05v.23c-.34,0-.67,0-1,0l-1.12,0v-.23h.08c.17,0,.47,0,.47-.21a2.18,2.18,0,0,0-.16-.54l-.29-.86H86.55Z" class="b"/>
    <path d="M87.37,57.06h0Zm-.63,2.07H88l-.65-2Zm-.09.06L87.36,57h0v0h0v0h0l.71,2.18Zm1.52,2.19,1.09,0,1,0v-.15h0a.51.51,0,0,1-.52-.32c-.1-.23-.19-.5-.28-.76l-1.37-3.91L88,56.07h-.07a2.9,2.9,0,0,1-.66.3,8.22,8.22,0,0,1-.28.93l-1.2,3.42a.7.7,0,0,1-.68.51h0v.15l.78,0,.87,0v-.15h-.05c-.25,0-.59,0-.6-.3a5,5,0,0,1,.17-.59h0l.25-.8h1.74l.29.89a2,2,0,0,1,.15.55c0,.23-.32.24-.49.25h0Zm2.12.07c-.34,0-.68,0-1,0l-1.12,0h0v-.29h.11c.17,0,.43,0,.43-.18a2.66,2.66,0,0,0-.15-.53l-.28-.84H86.57l-.23.75a3.81,3.81,0,0,0-.16.57c0,.19.28.23.53.23h.11v.29h0l-.9,0-.81,0h0v-.29h.07a.64.64,0,0,0,.62-.46l1.2-3.42a9.53,9.53,0,0,0,.29-1,3.63,3.63,0,0,0,.68-.32L88,56a.09.09,0,0,1,.08,0,1.34,1.34,0,0,1,.07.18l1.37,3.91c.09.26.18.53.28.75a.43.43,0,0,0,.46.28h.08v.29Z" class="b"/>
    <path d="M92.17,60.69c0,.3.2.38.44.42a5.53,5.53,0,0,0,1,0,1.09,1.09,0,0,0,.71-.4,1.66,1.66,0,0,0,.23-.54h.22c-.08.43-.19.84-.28,1.27l-2,0c-.66,0-1.32,0-2,0v-.23h.1c.27,0,.56,0,.56-.5V56.86c0-.39-.29-.42-.56-.42h-.1v-.23c.39,0,.78,0,1.18,0s.75,0,1.13,0v.23h-.19c-.28,0-.5,0-.5.4Z" class="b"/>
    <path d="M94.46,61.38c.08-.4.18-.8.26-1.2h-.15a1.85,1.85,0,0,1-.23.53,1.13,1.13,0,0,1-.74.41l-.57,0h-.42c-.24,0-.48-.13-.48-.45V56.84c0-.42.26-.44.54-.44h.16v-.16c-.37,0-.73,0-1.1,0s-.77,0-1.15,0v.16h.07c.27,0,.59.05.59.46v3.83c0,.49-.32.54-.59.54h-.07v.15l1.94,0,1.94,0m0,.07-2,0c-.66,0-1.32,0-2,0h0v-.29h.14c.27,0,.53,0,.53-.47V56.86c0-.36-.26-.39-.53-.39h-.14v-.29h0c.39,0,.78,0,1.18,0s.75,0,1.13,0h0v.29h-.22c-.29,0-.47,0-.47.37v3.85c0,.27.18.35.42.38l.41,0,.56,0a1.05,1.05,0,0,0,.7-.39,1.61,1.61,0,0,0,.22-.53v0h.28v0c-.08.42-.18.84-.27,1.26v0Z" class="b"/>
</svg>
