<svg xmlns="http://www.w3.org/2000/svg" xmlns:xlink="http://www.w3.org/1999/xlink" viewBox="0 0 125.43 78.39">
    <defs>
        <style>
            .a{fill:#f9f9f9;}.b{fill:#fff;}.c{fill:url(#a);}.d{fill:url(#b);}.e{fill:url(#c);}
        </style>
        <linearGradient id="a" x1="-945.83" x2="-938.39" y1="1552.84" y2="1552.84" gradientTransform="matrix(2.83, 0, 0, -2.83, 2756.91, 4440.94)" gradientUnits="userSpaceOnUse">
            <stop offset="0" stop-color="#007b40"/>
            <stop offset="1" stop-color="#55b330"/>
        </linearGradient>
        <linearGradient id="b" x1="-962.51" x2="-955.08" y1="1552.84" y2="1552.84" gradientTransform="matrix(2.83, 0, 0, -2.83, 2756.91, 4440.94)" gradientUnits="userSpaceOnUse">
            <stop offset="0" stop-color="#1d2970"/>
            <stop offset="1" stop-color="#006dba"/>
        </linearGradient>
        <linearGradient id="c" x1="-954.17" x2="-946.73" y1="1552.84" y2="1552.84" gradientTransform="matrix(2.83, 0, 0, -2.83, 2756.91, 4440.94)" gradientUnits="userSpaceOnUse">
            <stop offset="0" stop-color="#6e2b2f"/>
            <stop offset="1" stop-color="#e30138"/>
        </linearGradient>
    </defs>
    <title>
        JCB
    </title>
    <rect width="125.43" height="78.39" class="a" rx="4.18" ry="4.18"/>
    <path d="M101.17,56.86a12,12,0,0,1-12,12H24.26V21.53a12,12,0,0,1,12-12h65V56.86Z" class="b"/>
    <path d="M80,40.24h5.57l.08,0,.08,0,.08,0,.09,0,.08,0,.08,0,.08,0,.09,0,.08.06.08.06.08.06.09.07a.6.6,0,0,0,.08.08l.08.09.08.1.09.12.08.13a1.09,1.09,0,0,1,.08.15,1.67,1.67,0,0,1,.08.2,2.29,2.29,0,0,1,.09.28,2.87,2.87,0,0,1,0,.52,3.07,3.07,0,0,1,0,.53c0,.09,0,.19-.09.28a1.54,1.54,0,0,1-.08.19.8.8,0,0,1-.08.16l-.08.13-.09.11a.39.39,0,0,1-.08.1l-.08.09-.08.08-.09.07-.08.07-.08.06-.08,0-.09.05-.08,0-.08,0-.08,0-.09,0-.08,0-.08,0-.08,0H80V40.24Zm6.64-5.11a2.33,2.33,0,0,1,0,1,2.29,2.29,0,0,1-.08.28,1.11,1.11,0,0,1-.09.19,1.09,1.09,0,0,1-.08.15l-.08.13-.08.1-.09.1-.08.08-.08.07-.08.07-.09.06-.08,0-.08.05-.08,0-.08,0-.09,0-.08,0-.08,0-.08,0-.09,0H80V33.53h5l.08,0,.09,0,.08,0,.08,0,.08,0,.09,0,.08,0,.08.05.08,0,.08,0,.09.06L86,34a.6.6,0,0,1,.08.08.3.3,0,0,1,.08.08l.09.09.08.11a.83.83,0,0,1,.08.12,1.09,1.09,0,0,1,.08.15,1.63,1.63,0,0,1,.09.19c0,.09.06.19.08.28ZM96.87,13.56h0V56.29c0,.26,0,.51,0,.76s-.05.44-.08.65l-.09.43c0,.11,0,.23-.08.34a2.45,2.45,0,0,1-.08.29c0,.09-.05.18-.08.26l-.09.24a1.8,1.8,0,0,1-.08.21l-.08.2a1.42,1.42,0,0,0-.08.18L96,60l-.08.16-.08.16a1.09,1.09,0,0,0-.08.15l-.09.14a1,1,0,0,1-.08.14l-.08.13a.83.83,0,0,0-.08.12l-.09.13-.08.11-.08.12-.08.1-.09.11-.08.1-.08.1-.08.1-.09.09-.08.09-.08.09-.08.09-.09.08-.08.08-.08.08a.6.6,0,0,0-.08.08l-.09.07a.6.6,0,0,1-.08.08l-.08.07a.27.27,0,0,0-.08.07l-.09.06a.27.27,0,0,1-.08.07l-.08.06-.08.07-.09.06-.08.06-.08.06-.08,0-.09.06-.08,0-.08.06-.08,0-.09.05-.08,0-.08,0-.08.05-.09,0-.08,0-.08,0-.08,0-.09,0A.2.2,0,0,1,92,64l-.08,0-.08,0-.09,0-.08,0-.08,0-.08,0-.09,0-.08,0-.08,0-.08,0-.09,0-.08,0-.08,0-.08,0-.09,0-.08,0-.08,0-.08,0-.09,0-.08,0-.08,0-.08,0-.09,0-.08,0h-.08l-.08,0h-.17l-.08,0H75.82V47.41H90.27l.08,0h.17l.08,0,.08,0,.08,0h.09l.08,0,.08,0,.08,0,.09,0,.08,0,.08,0,.08,0,.09,0,.08,0,.08,0,.08,0,.09,0,.08,0,.08,0,.08,0,.09,0,.08,0,.08,0,.08,0,.09,0,.08-.05.08,0,.08-.05.09-.06.08-.06.08-.06.08-.07.09-.07.08-.07.08-.08.08-.08.09-.08.08-.1.08-.09a.76.76,0,0,0,.08-.11l.09-.11.08-.12.08-.13a1.09,1.09,0,0,0,.08-.15l.09-.16.08-.18c0-.08.06-.15.08-.22s.06-.19.08-.29a3,3,0,0,0,.09-.43,4.93,4.93,0,0,0,0-.55,4.58,4.58,0,0,0,0-.53,3.15,3.15,0,0,0-.09-.42,2.76,2.76,0,0,0-.08-.27,1.8,1.8,0,0,0-.08-.21l-.08-.18-.09-.16a1,1,0,0,0-.08-.14l-.08-.13a.76.76,0,0,1-.08-.11l-.09-.11-.08-.1-.08-.09-.08-.09-.09-.08-.08-.08-.08-.08a.27.27,0,0,1-.08-.07l-.09-.06a.27.27,0,0,0-.08-.07l-.08-.06L92.83,40l-.09,0-.08-.05-.08-.06-.08,0-.09-.05-.08,0-.08,0a.2.2,0,0,1-.08,0l-.09,0-.08,0-.08,0-.08,0-.09,0-.08,0-.08,0-.08,0-.09,0-.08,0-.08,0-.08,0-.09,0-.08,0-.08,0-.08,0-.09,0-.08,0H90.6l-.08,0h-.09l-.08,0h-.73v-.1h.07l.08,0h.09l.08,0H90l.08,0,.09,0,.08,0,.08,0,.08,0,.09,0,.08,0,.08,0,.08,0,.09,0,.08,0,.08,0,.08,0,.09,0,.08,0,.08,0,.08,0,.09-.05.08,0,.08,0,.08-.05.09-.06.08-.06L92,38l.08-.06.09-.07.08-.07.08-.07.08-.08.09-.08.08-.09.08-.1.08-.1.09-.11a.83.83,0,0,1,.08-.12L93,36.9a1.09,1.09,0,0,0,.08-.15l.09-.16c0-.07,0-.13.08-.19a2.09,2.09,0,0,0,.08-.23,2.45,2.45,0,0,0,.08-.29,3.86,3.86,0,0,0,.09-.49c0-.13,0-.26,0-.39s0-.28,0-.42a4,4,0,0,0-.09-.5c0-.1-.05-.19-.08-.29a1.43,1.43,0,0,0-.08-.22c0-.07,0-.13-.08-.19l-.09-.16a.64.64,0,0,0-.08-.14L92.91,33a.83.83,0,0,1-.08-.12l-.09-.11-.08-.1-.08-.09-.08-.08-.09-.08-.08-.08-.08-.07-.08-.07-.09-.07L92,32,91.92,32l-.08-.06-.09-.05-.08-.05-.08,0-.08-.05-.09,0-.08,0-.08,0a.2.2,0,0,1-.08,0l-.09,0-.08,0-.08,0-.08,0-.09,0-.08,0-.08,0-.08,0-.09,0-.08,0-.08,0-.08,0-.09,0-.08,0-.08,0-.08,0h-.09l-.08,0H75.82V22.1A8.35,8.35,0,0,1,76,20.36c0-.12,0-.24.08-.36s0-.2.08-.3l.09-.26a2.25,2.25,0,0,1,.08-.24,1.43,1.43,0,0,1,.08-.22l.08-.21.09-.18a1.42,1.42,0,0,1,.08-.18,1.3,1.3,0,0,1,.08-.17s.05-.1.08-.16l.09-.15.08-.14a1,1,0,0,1,.08-.14l.08-.13.09-.13.08-.12.08-.12.08-.11.09-.11a.76.76,0,0,1,.08-.11l.08-.1.08-.1.09-.1.08-.09.08-.09.08-.09.09-.09a.3.3,0,0,1,.08-.08l.08-.09a.6.6,0,0,0,.08-.08l.09-.07a.6.6,0,0,1,.08-.08l.08-.07.08-.07.08-.07.09-.07.08-.07.08-.06.08-.07.09-.06.08-.06.08-.06.08,0,.09-.06.08-.05.08-.06.08-.05.09-.05.08,0,.08-.05.08,0,.09-.05.08,0,.08-.05a.2.2,0,0,0,.08,0l.09,0,.08,0,.08,0a.2.2,0,0,0,.08,0l.09,0,.08,0,.08,0a.2.2,0,0,0,.08,0l.09,0,.08,0,.08,0,.08,0,.09,0,.08,0,.08,0,.08,0,.09,0,.08,0,.08,0,.08,0,.09,0,.08,0,.08,0,.08,0,.09,0,.08,0h.08l.08,0h.09l.08,0H96.87Z" class="c"/>
    <path d="M28.71,43.3l-.18-.09V22.1a8.26,8.26,0,0,1,.18-1.73c0-.12.05-.24.08-.36s.05-.2.08-.3.05-.18.08-.27A2.25,2.25,0,0,0,29,19.2l.09-.22a1.67,1.67,0,0,1,.08-.2c0-.06.05-.13.08-.19a1.42,1.42,0,0,0,.08-.18l.09-.16a.8.8,0,0,1,.08-.16l.08-.15a1.09,1.09,0,0,0,.08-.15l.09-.13a1,1,0,0,1,.08-.14l.08-.12a.57.57,0,0,0,.08-.13l.09-.11a.83.83,0,0,1,.08-.12l.08-.11.08-.1a.76.76,0,0,0,.08-.11l.09-.1.08-.09.08-.1.08-.09.09-.09a.3.3,0,0,1,.08-.08l.08-.09a.6.6,0,0,0,.08-.08l.09-.08.08-.08.08-.07.08-.08.09-.07.08-.07.08-.07.08-.06.08-.07.09-.06.08-.06.08-.06.08-.06.09-.06.08-.05.08-.06.08,0,.09-.05.08-.05.08,0,.08-.05.09,0,.08,0,.08,0,.08,0,.08,0,.09,0,.08,0,.08,0,.08,0,.09,0,.08,0,.08,0,.08,0,.09,0,.08,0,.08,0,.08,0,.09,0,.08,0,.08,0,.08,0,.08,0,.09,0,.08,0,.08,0,.08,0,.09,0,.08,0,.08,0,.08,0h.09l.08,0,.08,0h.17l.08,0H49.61V56.29a8,8,0,0,1-.07,1.1c0,.17,0,.34-.08.51s-.05.26-.09.39,0,.21-.08.31a2.29,2.29,0,0,1-.08.28c0,.08-.05.16-.08.25a2,2,0,0,0-.08.22l-.09.21a1.54,1.54,0,0,1-.08.19l-.08.18a1.3,1.3,0,0,0-.08.17l-.09.16a1.09,1.09,0,0,1-.08.15l-.08.15a1,1,0,0,0-.08.14l-.09.13a.57.57,0,0,1-.08.13l-.08.12-.08.12-.08.12-.09.11a.76.76,0,0,1-.08.11l-.08.1-.08.1-.09.1-.08.1L47.4,62l-.08.09-.09.08-.08.09-.08.08-.08.08-.09.08a.6.6,0,0,1-.08.08l-.08.07-.08.07-.08.07-.09.07-.08.07-.08.06-.08.07-.09.06-.08.06-.08.06-.08.06-.09.05-.08.06-.08.05-.08,0-.09.06-.08,0-.08,0-.08.05-.08,0-.09,0-.08,0-.08.05a.2.2,0,0,0-.08,0l-.09,0-.08,0-.08,0-.08,0-.09,0-.08,0-.08,0-.08,0-.09,0-.08,0-.08,0-.08,0-.08,0-.09,0-.08,0-.08,0-.08,0-.09,0-.08,0-.08,0-.08,0-.09,0-.08,0-.08,0h-.08l-.09,0-.08,0h-.16l-.08,0H28.53v-18l.18,0,.08,0,.08,0,.08,0L29,47l.09,0,.08,0,.08,0,.08,0h.09l.08,0,.08,0,.08,0h.09l.08,0,.08,0H30l.09,0,.08,0h.08l.08,0h.08l.09,0h.08l.08,0h.08l.09,0h.08l.08,0h.17l.08,0h.16l.09,0h.16l.08,0h.41l.09,0h8.56l.08,0h.17l.08,0h.16l.09,0,.08,0h.08l.08,0h.09l.08,0,.08,0,.08,0h.09l.08,0,.08,0,.08,0,.09,0,.08,0,.08,0,.08,0,.08,0,.09,0,.08,0,.08,0,.08,0,.09,0,.08,0,.08,0,.08,0,.09,0,.08,0,.08,0,.08,0,.09,0,.08,0,.08,0,.08,0,.08,0,.09,0,.08,0,.08,0,.08,0,.09,0,.08-.05.08,0,.08,0,.09,0,.08-.05.08,0,.08-.05.09,0,.08-.06.08,0,.08-.06L45.5,46l.09-.06.08-.07.08-.06.08-.07.09-.07.08-.08.08-.07.08-.08.09-.09.08-.08.08-.1.08-.09.09-.1.08-.1.08-.12a.44.44,0,0,0,.08-.11.57.57,0,0,0,.08-.13l.09-.13.08-.14.08-.15a1.19,1.19,0,0,0,.08-.16l.09-.18a1.67,1.67,0,0,1,.08-.2,2,2,0,0,0,.08-.22,2.58,2.58,0,0,0,.08-.26l.09-.31c0-.12.05-.25.08-.38s.06-.39.08-.59a8.06,8.06,0,0,0,0-.85V31H40.5V40.9c0,.15,0,.3,0,.45a4.72,4.72,0,0,1-.08.56c0,.11,0,.22-.08.33l-.09.25a1.8,1.8,0,0,1-.08.21,1.42,1.42,0,0,1-.08.18c0,.06,0,.11-.08.16l-.09.15-.08.13-.08.12a1,1,0,0,0-.08.11.39.39,0,0,0-.08.1l-.09.09-.08.09-.08.09-.08.07-.09.08-.08.07L39,44.2l-.08.06-.09.06-.08.06-.08,0-.08,0-.09.05-.08,0a.2.2,0,0,1-.08,0l-.08,0-.08,0-.09,0-.08,0-.08,0-.08,0-.09,0-.08,0-.08,0-.08,0-.09,0-.08,0-.08,0-.08,0H37.1L37,45h-.16l-.08,0H34.06L34,45h-.25l-.08,0h-.09l-.08,0H33.4l-.08,0h-.09l-.08,0-.08,0-.08,0h-.08l-.09,0-.08,0-.08,0-.08,0-.09,0-.08,0-.08,0-.08,0-.09,0-.08,0-.08,0-.08,0-.09,0-.08,0-.08,0-.08,0-.08,0-.09,0-.08,0-.08,0-.08,0-.09,0-.08,0-.08,0-.08,0-.09,0-.08,0-.08,0-.08,0-.09,0-.08,0-.08,0-.08,0-.08,0-.09,0-.08,0-.08,0-.08,0-.09,0-.08,0-.08,0-.08,0-.09,0-.08,0-.08,0-.08,0-.09,0-.08,0-.08,0-.08,0-.08,0Z" class="d"/>
    <path d="M52.35,33.15l-.18.14V22.1a9,9,0,0,1,.18-1.73c0-.12,0-.24.08-.36l.09-.3a2.76,2.76,0,0,1,.08-.27,2.25,2.25,0,0,1,.08-.24c0-.07,0-.15.08-.22l.09-.2a1.54,1.54,0,0,1,.08-.19,1.42,1.42,0,0,1,.08-.18l.08-.16.08-.16.09-.15a1.09,1.09,0,0,1,.08-.15l.08-.13a1,1,0,0,0,.08-.14l.09-.12a.83.83,0,0,1,.08-.12l.08-.12a.83.83,0,0,0,.08-.12l.09-.11.08-.1.08-.11a.39.39,0,0,0,.08-.1l.09-.09.08-.1.08-.09.08-.09.08-.08.09-.09.08-.08.08-.08a.6.6,0,0,0,.08-.08l.09-.07a.6.6,0,0,1,.08-.08l.08-.07a.27.27,0,0,0,.08-.07l.09-.07.08-.06.08-.07.08-.06.09-.06.08-.06.08-.06.08-.06L56,15l.09-.06.08,0,.08-.05.08-.05.09,0,.08-.05.08,0,.08,0,.09,0,.08,0,.08,0,.08,0,.09,0,.08,0,.08,0,.08,0,.08,0,.09,0,.08,0,.08,0,.08,0,.09,0,.08,0L58,14,58,14l.09,0,.08,0,.08,0,.08,0,.09,0,.08,0,.08,0,.08,0,.08,0,.09,0,.08,0H59l.08,0,.09,0h.16l.08,0H73.26V56.29a10,10,0,0,1-.07,1.1c0,.17,0,.34-.09.51s0,.26-.08.39,0,.21-.08.31,0,.19-.08.28l-.09.24a2.09,2.09,0,0,1-.08.23,1.8,1.8,0,0,1-.08.21c0,.06,0,.12-.08.19a1.42,1.42,0,0,0-.08.18l-.09.17a1.19,1.19,0,0,1-.08.16l-.08.15a1.09,1.09,0,0,0-.08.15L72,60.7l-.08.13-.08.13a.83.83,0,0,0-.08.12l-.09.12a.83.83,0,0,1-.08.12l-.08.11a.76.76,0,0,0-.08.11l-.09.1-.08.1a.39.39,0,0,1-.08.1l-.08.09-.08.1-.09.09a.3.3,0,0,1-.08.08l-.08.09-.08.08-.09.08-.08.08-.08.08-.08.07-.09.07a.27.27,0,0,1-.08.07l-.08.07-.08.07L70,63a.27.27,0,0,1-.08.07l-.08.06-.08.06-.08.06-.09.06-.08.05-.08.06-.08.05-.09,0-.08.05-.08,0-.08,0-.09.05-.08,0-.08,0-.08,0-.09.05-.08,0-.08,0-.08,0-.08,0-.09,0-.08,0-.08,0-.08,0-.09,0-.08,0-.08,0-.08,0-.09,0-.08,0-.08,0-.08,0-.09,0-.08,0-.08,0-.08,0-.08,0-.09,0-.08,0-.08,0-.08,0h-.09l-.08,0-.08,0H66.1l-.08,0H52.17V45.1l.18.15.08.07.09.06.08.06.08.06.08.06.09.06.08.06.08,0,.08.06.08.05.09,0,.08,0,.08.05.08,0,.09,0,.08.05.08,0,.08,0,.09,0,.08,0,.08,0,.08,0,.09,0,.08,0,.08,0,.08,0,.08,0,.09,0,.08,0,.08,0,.08,0,.09,0,.08,0,.08,0,.08,0,.09,0,.08,0,.08,0,.08,0,.09,0,.08,0,.08,0,.08,0,.08,0,.09,0,.08,0,.08,0,.08,0,.09,0,.08,0,.08,0,.08,0,.09,0,.08,0,.08,0,.08,0,.09,0,.08,0h.08l.08,0,.08,0,.09,0h.08l.08,0h.08l.09,0h.08l.08,0H58l.09,0h.24l.09,0H59l.08,0h7.58l.08,0h.41l.09,0h.24l.09,0h.16l.08,0H68l.08,0h.08l.09,0h.08l.08,0h.08l.08,0h.09l.08,0h.08l.08,0H69l.08,0h.08l.08,0,.09,0h.08l.08,0,.08,0h.09l.08,0,.08,0,.08,0H70l.09,0,.08,0,.08,0,.08,0,.09,0h.08l.08,0,.08,0,.09,0,.08,0,.08,0V43.21l-.08,0-.08,0-.09,0-.08,0-.08,0-.08,0-.09,0-.08,0-.08,0-.08,0-.09,0-.08,0-.08,0-.08,0-.08,0-.09,0-.08,0-.08,0-.08,0-.09,0-.08,0-.08,0-.08,0-.09,0-.08,0-.08,0-.08,0-.09,0-.08,0-.08,0-.08,0-.08,0-.09,0-.08,0-.08,0-.08,0-.09,0-.08,0-.08,0-.08,0-.09,0-.08,0-.08,0-.08,0-.09,0-.08,0-.08,0-.08,0-.08,0-.09,0-.08,0-.08,0h-.08l-.09,0-.08,0-.08,0h-.08l-.09,0H66l-.08,0h-.17l-.08,0h-.16l-.08,0h-3.3l-.08,0H61.9l-.08,0h-.08l-.08,0h-.09l-.08,0-.08,0-.08,0-.08,0-.09,0-.08,0-.08,0-.08,0-.09,0-.08,0-.08,0-.08,0-.09,0-.08,0-.08,0-.08,0-.09,0-.08,0-.08,0-.08,0-.08,0-.09,0-.08,0-.08,0-.08-.05-.09,0-.08-.05L59.27,44l-.08-.05-.09-.07L59,43.81l-.08-.06-.08-.07-.09-.08-.08-.07-.08-.08a.6.6,0,0,1-.08-.08l-.08-.09-.09-.09-.08-.1L58.2,43l-.08-.1L58,42.77,58,42.65l-.08-.12-.08-.14-.09-.15-.08-.16-.08-.18a1.54,1.54,0,0,1-.08-.19l-.09-.22a2.58,2.58,0,0,0-.08-.26c0-.09,0-.19-.08-.3a3.82,3.82,0,0,1-.08-.39,3.78,3.78,0,0,1-.08-.6,6.86,6.86,0,0,1,0-1.48,4.07,4.07,0,0,1,.08-.61c0-.13,0-.26.08-.39s0-.2.08-.3a2.41,2.41,0,0,0,.08-.25l.09-.22a1.67,1.67,0,0,1,.08-.2l.08-.17.08-.16.09-.15a1,1,0,0,1,.08-.14l.08-.13.08-.12.09-.11a.76.76,0,0,1,.08-.11l.08-.1a.39.39,0,0,0,.08-.1l.09-.09a.6.6,0,0,1,.08-.08l.08-.09.08-.07.08-.08.09-.07.08-.07.08-.07.08-.06.09-.06.08-.06.08,0,.08-.06.09,0,.08-.05.08,0,.08,0,.09-.05.08,0L60,34l.08,0,.08,0,.09,0,.08,0,.08,0,.08,0,.09,0,.08,0,.08,0,.08,0,.09,0,.08,0,.08,0,.08,0,.09,0,.08,0,.08,0h.08l.08,0,.09,0h.08l.08,0h.08l.09,0H65.2l.08,0h.41l.08,0h.09l.08,0H66l.08,0h.09l.08,0h.08l.08,0,.09,0h.08l.08,0,.08,0,.09,0,.08,0,.08,0,.08,0,.08,0,.09,0,.08,0,.08,0,.08,0,.09,0,.08,0,.08,0,.08,0,.09,0L68,34l.08,0,.08,0,.09,0,.08,0,.08,0,.08,0,.08,0,.09,0,.08,0,.08,0,.08,0,.09,0,.08,0,.08,0,.08,0,.09,0,.08,0,.08,0,.08,0,.09,0,.08,0,.08,0,.08,0,.08,0,.09,0,.08,0,.08,0,.08,0,.09,0,.08,0,.08,0,.08,0,.09,0,.08,0,.08,0V31.57l-.08,0-.08,0-.09,0-.08,0-.08,0-.08,0-.09,0-.08,0-.08,0h-.08l-.09,0-.08,0-.08,0h-.08l-.08,0-.09,0h-.08l-.08,0-.08,0h-.09l-.08,0-.08,0H69l-.09,0h-.08l-.08,0h-.08l-.09,0h-.08l-.08,0h-.08l-.08,0h-.09l-.08,0h-.16l-.09,0h-.16l-.08,0h-.17l-.08,0H67l-.08,0H58.69l-.08,0h-.33l-.08,0h-.08l-.09,0h-.16l-.08,0H57.7l-.08,0-.08,0h-.08l-.09,0-.08,0h-.08l-.08,0-.08,0-.09,0-.08,0-.08,0-.08,0-.09,0-.08,0-.08,0-.08,0-.09,0-.08,0-.08,0-.08,0-.09,0-.08,0-.08,0-.08,0-.08,0-.09,0-.08,0-.08,0-.08,0-.09,0-.08,0-.08,0-.08,0-.09,0-.08,0-.08,0-.08,0-.09,0-.08,0-.08,0-.08,0-.08,0-.09,0-.08,0L54,32.1l-.08,0-.09,0-.08,0-.08.05-.08,0-.09,0-.08,0-.08.05-.08,0-.09.05-.08,0-.08.06-.08,0-.08.06-.09,0-.08.06L52.6,33l-.08.07-.09.06-.08.07Z" class="e"/>
</svg>
