<svg xmlns="http://www.w3.org/2000/svg" viewBox="0 0 125.43 78.39">
    <defs>
        <style>
            .a{fill:#f9f9f9;}.b{fill:#fbb231;}.b,.c,.d{fill-rule:evenodd;}.c{fill:#ec1c2e;}.d{fill:#fff;}.e{fill:none;stroke:#fff;stroke-miterlimit:2.61;stroke-width:0.22px;}
        </style>
    </defs>
    <title>
        MasterCard
    </title>
    <rect width="125.43" height="78.39" class="a" rx="4.18" ry="4.18"/>
    <polygon points="77.77 61.7 78.93 61.67 80.08 61.59 81.2 61.44 82.31 61.24 83.4 60.99 84.47 60.69 85.52 60.33 86.54 59.93 87.54 59.48 88.52 58.98 89.46 58.44 90.38 57.85 91.26 57.22 92.11 56.55 92.93 55.85 93.71 55.1 94.46 54.31 95.17 53.49 95.83 52.65 96.46 51.76 97.05 50.85 97.59 49.9 98.09 48.93 98.54 47.93 98.94 46.91 99.3 45.86 99.61 44.79 99.86 43.7 100.05 42.59 100.2 41.46 100.28 40.32 100.31 39.16 100.28 38 100.2 36.86 100.05 35.74 99.86 34.64 99.61 33.55 99.3 32.49 98.94 31.44 98.54 30.43 98.09 29.43 97.59 28.46 97.05 27.53 96.46 26.61 95.83 25.73 95.17 24.89 94.46 24.07 93.71 23.28 92.93 22.54 92.11 21.83 91.26 21.17 90.38 20.54 89.46 19.95 88.52 19.41 87.54 18.92 86.54 18.46 85.52 18.06 84.47 17.7 83.4 17.4 82.31 17.15 81.2 16.95 80.08 16.81 78.93 16.73 77.77 16.69 76.61 16.73 75.47 16.81 74.34 16.95 73.23 17.15 72.15 17.4 71.08 17.7 70.04 18.06 69.02 18.46 68.02 18.92 67.06 19.41 66.12 19.95 65.2 20.54 64.33 21.17 63.47 21.83 62.66 22.54 61.88 23.28 61.14 24.07 60.43 24.89 59.76 25.73 59.14 26.61 58.56 27.53 58.02 28.46 57.52 29.43 57.07 30.43 56.66 31.44 56.32 32.49 56.01 33.55 55.76 34.64 55.56 35.74 55.42 36.86 55.34 38 55.31 39.16 55.34 40.32 55.42 41.46 55.56 42.59 55.76 43.7 56.01 44.79 56.32 45.86 56.66 46.91 57.07 47.93 57.52 48.93 58.02 49.9 58.56 50.85 59.14 51.76 59.76 52.65 60.43 53.49 61.14 54.31 61.88 55.1 62.66 55.85 63.47 56.55 64.33 57.22 65.2 57.85 66.12 58.44 67.06 58.98 68.02 59.48 69.02 59.93 70.04 60.33 71.08 60.69 72.15 60.99 73.23 61.24 74.34 61.44 75.47 61.59 76.61 61.67 77.77 61.7 77.77 61.7 77.77 61.7" class="b"/>
    <polygon points="47.66 61.7 48.81 61.67 49.96 61.59 51.09 61.44 52.19 61.24 53.28 60.99 54.35 60.69 55.39 60.33 56.41 59.93 57.41 59.48 58.37 58.98 59.31 58.44 60.22 57.85 61.11 57.22 61.96 56.55 62.77 55.85 63.55 55.1 64.29 54.31 65 53.49 65.67 52.65 66.29 51.76 66.88 50.85 67.41 49.9 67.91 48.93 68.36 47.93 68.77 46.91 69.11 45.86 69.42 44.79 69.67 43.7 69.86 42.59 70.01 41.46 70.09 40.32 70.12 39.16 70.09 38 70.01 36.86 69.86 35.74 69.67 34.64 69.42 33.55 69.11 32.49 68.77 31.44 68.36 30.43 67.91 29.43 67.41 28.46 66.88 27.53 66.29 26.61 65.67 25.73 65 24.89 64.29 24.07 63.55 23.28 62.77 22.54 61.96 21.83 61.11 21.17 60.22 20.54 59.31 19.95 58.37 19.41 57.41 18.92 56.41 18.46 55.39 18.06 54.35 17.7 53.28 17.4 52.19 17.15 51.09 16.95 49.96 16.81 48.81 16.73 47.66 16.69 46.5 16.73 45.35 16.81 44.23 16.95 43.12 17.15 42.03 17.4 40.96 17.7 39.91 18.06 38.89 18.46 37.89 18.92 36.91 19.41 35.97 19.95 35.05 20.54 34.17 21.17 33.32 21.83 32.5 22.54 31.72 23.28 30.97 24.07 30.27 24.89 29.6 25.73 28.97 26.61 28.38 27.53 27.84 28.46 27.34 29.43 26.89 30.43 26.48 31.44 26.13 32.49 25.82 33.55 25.57 34.64 25.38 35.74 25.23 36.86 25.15 38 25.12 39.16 25.15 40.32 25.23 41.46 25.38 42.59 25.57 43.7 25.82 44.79 26.13 45.86 26.48 46.91 26.89 47.93 27.34 48.93 27.84 49.9 28.38 50.85 28.97 51.76 29.6 52.65 30.27 53.49 30.97 54.31 31.72 55.1 32.5 55.85 33.32 56.55 34.17 57.22 35.05 57.85 35.97 58.44 36.91 58.98 37.89 59.48 38.89 59.93 39.91 60.33 40.96 60.69 42.03 60.99 43.12 61.24 44.23 61.44 45.35 61.59 46.5 61.67 47.66 61.7 47.66 61.7 47.66 61.7" class="c"/>
    <polygon points="60.08 25.33 72.04 25.33 72.04 24.1 61.11 24.1 60.08 25.33 60.08 25.33 60.08 25.33" class="b"/>
    <polygon points="58.29 28.04 72.04 28.04 72.04 26.82 59.01 26.82 58.29 28.04 58.29 28.04 58.29 28.04" class="b"/>
    <polygon points="56.95 30.75 72.04 30.75 72.04 29.53 57.48 29.53 56.95 30.75 56.95 30.75 56.95 30.75" class="b"/>
    <polygon points="56.03 33.47 72.04 33.47 72.04 32.25 56.41 32.25 56.03 33.47 56.03 33.47 56.03 33.47" class="b"/>
    <polygon points="56.57 46.6 72.07 46.6 72.07 45.38 56.19 45.38 56.57 46.6 56.57 46.6 56.57 46.6" class="b"/>
    <polygon points="57.71 49.32 72.07 49.32 72.07 48.1 57.14 48.1 57.71 49.32 57.71 49.32 57.71 49.32" class="b"/>
    <polygon points="59.32 52.03 72.07 52.03 72.07 50.81 58.56 50.81 59.32 52.03 59.32 52.03 59.32 52.03" class="b"/>
    <polygon points="61.54 54.75 72.07 54.75 72.07 53.52 60.47 53.52 61.54 54.75 61.54 54.75 61.54 54.75" class="b"/>
    <polygon points="55.5 36.18 72.04 36.18 72.04 34.96 55.73 34.96 55.5 36.18 55.5 36.18 55.5 36.18" class="b"/>
    <polygon points="65.58 43.89 71.88 43.89 71.88 42.67 65.81 42.67 65.58 43.89 65.58 43.89 65.58 43.89" class="b"/>
    <polygon points="66.08 41.18 71.88 41.18 71.88 39.95 66.31 39.95 66.08 41.18 66.08 41.18 66.08 41.18" class="b"/>
    <polygon points="55.08 39.95 56.72 39.95 56.72 41.18 55.16 41.18 55.08 39.95 55.08 39.95 55.08 39.95" class="b"/>
    <polygon points="52.02 38.47 51.91 38.46 51.81 38.45 51.71 38.44 51.61 38.42 51.52 38.41 51.42 38.39 51.32 38.37 51.21 38.36 51.11 38.34 50.99 38.34 50.85 38.33 50.71 38.32 50.55 38.32 50.37 38.33 50.17 38.34 49.95 38.36 49.8 38.38 49.66 38.41 49.53 38.45 49.42 38.49 49.31 38.55 49.21 38.61 49.13 38.69 49.06 38.75 49.02 38.84 48.98 38.92 48.97 39.01 48.97 39.1 48.99 39.2 49.02 39.3 49.08 39.4 49.16 39.5 49.31 39.64 49.49 39.76 49.7 39.85 49.93 39.94 50.17 40.01 50.42 40.1 50.68 40.19 50.92 40.29 51.15 40.42 51.36 40.58 51.55 40.77 51.71 41 51.83 41.29 51.91 41.63 51.94 42.04 51.91 42.52 51.85 42.88 51.76 43.19 51.64 43.48 51.49 43.73 51.31 43.95 51.12 44.13 50.9 44.3 50.67 44.45 50.42 44.56 50.17 44.66 49.92 44.73 49.65 44.8 49.39 44.84 49.14 44.86 48.89 44.88 48.66 44.89 48.33 44.89 48.03 44.88 47.76 44.88 47.51 44.87 47.28 44.86 47.08 44.85 46.9 44.83 46.72 44.81 46.56 44.8 46.42 44.77 46.27 44.74 46.14 44.7 46.02 44.67 45.89 44.63 45.77 44.58 45.64 44.54 45.98 42.86 46.05 42.88 46.14 42.9 46.24 42.93 46.37 42.96 46.51 42.99 46.66 43.02 46.83 43.06 47.01 43.09 47.2 43.12 47.4 43.15 47.6 43.17 47.81 43.19 48.03 43.2 48.26 43.21 48.47 43.21 48.69 43.2 48.91 43.16 49.09 43.09 49.23 43.01 49.33 42.91 49.41 42.8 49.47 42.68 49.51 42.56 49.54 42.44 49.55 42.22 49.48 42.03 49.35 41.88 49.16 41.75 48.94 41.64 48.67 41.52 48.38 41.42 48.08 41.3 47.78 41.16 47.49 41 47.22 40.8 46.98 40.57 46.79 40.28 46.65 39.94 46.58 39.53 46.59 39.04 46.63 38.75 46.68 38.46 46.76 38.21 46.85 37.96 46.97 37.74 47.11 37.54 47.27 37.35 47.46 37.18 47.68 37.04 47.92 36.92 48.19 36.8 48.5 36.72 48.84 36.65 49.21 36.6 49.62 36.57 50.07 36.56 50.35 36.56 50.61 36.57 50.84 36.58 51.06 36.58 51.25 36.6 51.42 36.61 51.57 36.63 51.71 36.64 51.84 36.66 51.94 36.68 52.04 36.7 52.13 36.71 52.21 36.73 52.28 36.73 52.35 36.75 52.41 36.76 52.02 38.47 52.02 38.47 52.02 38.47" class="d"/>
    <polyline points="52.02 38.47 52.02 38.47 51.91 38.46 51.81 38.45 51.71 38.44 51.61 38.42 51.52 38.41 51.42 38.39 51.32 38.37 51.21 38.36 51.11 38.34 50.99 38.34 50.85 38.33 50.71 38.32 50.55 38.32 50.37 38.33 50.17 38.34 49.95 38.36 49.95 38.36 49.8 38.38 49.66 38.41 49.53 38.45 49.42 38.49 49.31 38.55 49.21 38.61 49.13 38.69 49.06 38.75 49.02 38.84 48.98 38.92 48.97 39.01 48.97 39.1 48.99 39.2 49.02 39.3 49.08 39.4 49.16 39.5 49.16 39.5 49.31 39.64 49.49 39.76 49.7 39.85 49.93 39.94 50.17 40.01 50.42 40.1 50.68 40.19 50.92 40.29 51.15 40.42 51.36 40.58 51.55 40.77 51.71 41 51.83 41.29 51.91 41.63 51.94 42.04 51.91 42.52 51.91 42.52 51.85 42.88 51.76 43.19 51.64 43.48 51.49 43.73 51.31 43.95 51.12 44.13 50.9 44.3 50.67 44.45 50.42 44.56 50.17 44.66 49.92 44.73 49.65 44.8 49.39 44.84 49.14 44.86 48.89 44.88 48.66 44.89 48.66 44.89 48.33 44.89 48.03 44.88 47.76 44.88 47.51 44.87 47.28 44.86 47.08 44.85 46.9 44.83 46.72 44.81 46.56 44.8 46.42 44.77 46.27 44.74 46.14 44.7 46.02 44.67 45.89 44.63 45.77 44.58 45.64 44.54 45.98 42.86 45.98 42.86 46.05 42.88 46.14 42.9 46.24 42.93 46.37 42.96 46.51 42.99 46.66 43.02 46.83 43.06 47.01 43.09 47.2 43.12 47.4 43.15 47.6 43.17 47.81 43.19 48.03 43.2 48.26 43.21 48.47 43.21 48.69 43.2 48.69 43.2 48.91 43.16 49.09 43.09 49.23 43.01 49.33 42.91 49.41 42.8 49.47 42.68 49.51 42.56 49.54 42.44 49.54 42.44 49.55 42.22 49.48 42.03 49.35 41.88 49.16 41.75 48.94 41.64 48.67 41.52 48.38 41.42 48.08 41.3 47.78 41.16 47.49 41 47.22 40.8 46.98 40.57 46.79 40.28 46.65 39.94 46.58 39.53 46.59 39.04 46.59 39.04 46.63 38.75 46.68 38.46 46.76 38.21 46.85 37.96 46.97 37.74 47.11 37.54 47.27 37.35 47.46 37.18 47.68 37.04 47.92 36.92 48.19 36.8 48.5 36.72 48.84 36.65 49.21 36.6 49.62 36.57 50.07 36.56 50.07 36.56 50.35 36.56 50.61 36.57 50.84 36.58 51.06 36.58 51.25 36.6 51.42 36.61 51.57 36.63 51.71 36.64 51.84 36.66 51.94 36.68 52.04 36.7 52.13 36.71 52.21 36.73 52.28 36.73 52.35 36.75 52.41 36.76 52.02 38.47" class="e"/>
    <polygon points="53.82 34.88 55.92 34.88 55.61 36.72 56.88 36.72 56.6 38.44 55.27 38.4 54.54 42.63 54.53 42.78 54.57 42.91 54.65 43.01 54.74 43.09 54.88 43.15 55.03 43.19 55.2 43.22 55.38 43.24 55.55 43.23 55.7 43.22 55.84 43.19 55.96 43.16 56.06 43.13 56.13 43.11 56.17 43.09 56.19 43.09 55.92 44.5 55.87 44.54 55.81 44.57 55.76 44.6 55.71 44.63 55.66 44.65 55.59 44.67 55.53 44.7 55.46 44.72 55.38 44.74 55.31 44.76 55.22 44.77 55.13 44.79 55.03 44.8 54.91 44.82 54.79 44.83 54.66 44.85 54.08 44.85 53.78 44.83 53.52 44.8 53.27 44.75 53.07 44.7 52.89 44.63 52.75 44.55 52.62 44.46 52.52 44.36 52.44 44.26 52.39 44.13 52.35 44 52.33 43.85 52.32 43.7 52.32 43.53 52.35 43.35 52.37 43.16 53.82 34.88 53.82 34.88 53.82 34.88" class="d"/>
    <polyline points="53.82 34.88 55.92 34.88 55.61 36.72 56.88 36.72 56.6 38.44 55.27 38.4 54.54 42.63 54.54 42.63 54.53 42.78 54.57 42.91 54.65 43.01 54.74 43.09 54.88 43.15 55.03 43.19 55.2 43.22 55.38 43.24 55.38 43.24 55.55 43.23 55.7 43.22 55.84 43.19 55.96 43.16 56.06 43.13 56.13 43.11 56.17 43.09 56.19 43.09 55.92 44.5 55.92 44.5 55.87 44.54 55.81 44.57 55.76 44.6 55.71 44.63 55.66 44.65 55.59 44.67 55.53 44.7 55.46 44.72 55.38 44.74 55.31 44.76 55.22 44.77 55.13 44.79 55.03 44.8 54.91 44.82 54.79 44.83 54.66 44.85 54.08 44.85 54.08 44.85 53.78 44.83 53.52 44.8 53.27 44.75 53.07 44.7 52.89 44.63 52.75 44.55 52.62 44.46 52.52 44.36 52.44 44.26 52.39 44.13 52.35 44 52.33 43.85 52.32 43.7 52.32 43.53 52.35 43.35 52.37 43.16 53.82 34.88" class="e"/>
    <polyline points="58.56 41.3 58.56 41.3 58.53 41.42 58.52 41.56 58.54 41.71 58.57 41.85 58.62 41.99 58.69 42.13 58.77 42.28 58.86 42.4 58.97 42.53 59.08 42.65 59.2 42.76 59.34 42.85 59.47 42.94 59.63 43 59.78 43.06 59.93 43.09 59.93 43.09 60.13 43.12 60.32 43.14 60.51 43.16 60.71 43.18 60.91 43.19 61.11 43.19 61.31 43.18 61.52 43.16 61.72 43.13 61.93 43.09 62.14 43.05 62.34 42.98 62.56 42.9 62.77 42.81 62.99 42.69 63.21 42.56 62.91 44.42 62.91 44.42 62.78 44.48 62.66 44.55 62.54 44.59 62.43 44.64 62.31 44.67 62.19 44.71 62.07 44.74 61.94 44.77 61.8 44.79 61.65 44.8 61.49 44.82 61.32 44.83 61.12 44.84 60.92 44.84 60.68 44.85 60.43 44.85 60.43 44.85 60.06 44.84 59.68 44.8 59.3 44.75 58.92 44.66 58.55 44.55 58.19 44.4 57.85 44.21 57.53 43.99 57.23 43.73 56.98 43.42 56.76 43.07 56.57 42.67 56.45 42.22 56.36 41.71 56.34 41.15 56.38 40.53 56.38 40.53 56.41 40.29 56.45 40.01 56.51 39.71 56.6 39.39 56.71 39.06 56.85 38.74 57.02 38.41 57.23 38.09 57.48 37.78 57.77 37.49 58.11 37.24 58.49 37.01 58.93 36.82 59.42 36.68 59.97 36.59 60.58 36.56 60.58 36.56 60.88 36.57 61.19 36.6 61.5 36.65 61.81 36.73 62.12 36.84 62.41 36.98 62.69 37.16 62.94 37.37 63.16 37.63 63.35 37.94 63.5 38.28 63.61 38.69 63.67 39.14 63.68 39.66 63.63 40.23 63.51 40.87 63.47 41.33 57.94 41.33 58.29 39.84 61.61 39.84 61.61 39.84 61.63 39.65 61.62 39.47 61.6 39.3 61.58 39.15 61.52 39 61.47 38.87 61.39 38.76 61.32 38.66 61.23 38.56 61.13 38.49 61.02 38.42 60.9 38.36 60.78 38.31 60.66 38.28 60.53 38.26 60.39 38.24 60.39 38.24 60.25 38.25 60.11 38.27 59.98 38.31 59.85 38.35 59.72 38.41 59.61 38.48 59.5 38.56 59.4 38.66 59.3 38.76 59.21 38.87 59.13 39 59.06 39.13 58.99 39.26 58.94 39.41 58.89 39.57 58.86 39.73 58.56 41.3" class="e"/>
    <polygon points="76.66 37.17 76.56 37.12 76.46 37.08 76.35 37.02 76.24 36.97 76.13 36.92 76 36.88 75.87 36.83 75.73 36.79 75.59 36.75 75.44 36.72 75.29 36.69 75.13 36.67 74.95 36.65 74.78 36.64 74.59 36.64 74.41 36.64 74.22 36.64 74.02 36.65 73.81 36.67 73.6 36.71 73.39 36.77 73.18 36.86 72.96 36.96 72.75 37.1 72.55 37.27 72.35 37.46 72.16 37.71 71.98 37.99 71.81 38.32 71.65 38.7 71.5 39.13 71.39 39.61 71.34 39.88 71.31 40.15 71.29 40.42 71.3 40.67 71.32 40.93 71.38 41.17 71.44 41.4 71.53 41.63 71.64 41.84 71.78 42.03 71.94 42.21 72.12 42.37 72.33 42.5 72.56 42.62 72.82 42.72 73.11 42.78 73.2 42.81 73.32 42.83 73.46 42.84 73.61 42.86 73.77 42.88 73.95 42.88 74.14 42.88 74.33 42.86 74.53 42.84 74.72 42.8 74.91 42.75 75.1 42.69 75.29 42.6 75.47 42.5 75.63 42.38 75.78 42.25 75.44 44.27 75.39 44.31 75.35 44.36 75.29 44.41 75.22 44.45 75.13 44.51 75.03 44.57 74.91 44.62 74.77 44.67 74.59 44.72 74.4 44.76 74.17 44.79 73.9 44.82 73.61 44.83 73.27 44.84 72.88 44.83 72.45 44.81 72.1 44.77 71.75 44.7 71.41 44.58 71.06 44.43 70.72 44.25 70.4 44.02 70.1 43.76 69.82 43.45 69.57 43.11 69.36 42.73 69.17 42.31 69.04 41.84 68.95 41.33 68.92 40.8 68.93 40.2 69.02 39.57 69.08 39.26 69.14 38.96 69.22 38.66 69.3 38.38 69.38 38.12 69.48 37.85 69.58 37.6 69.68 37.37 69.8 37.13 69.91 36.91 70.04 36.7 70.18 36.5 70.31 36.31 70.47 36.13 70.62 35.96 70.78 35.8 70.95 35.65 71.13 35.51 71.31 35.38 71.5 35.25 71.7 35.14 71.91 35.04 72.12 34.95 72.34 34.87 72.58 34.79 72.81 34.73 73.05 34.68 73.31 34.63 73.57 34.59 73.84 34.56 74.12 34.55 74.41 34.54 74.65 34.55 74.88 34.56 75.11 34.59 75.34 34.62 75.55 34.65 75.76 34.69 75.95 34.73 76.14 34.78 76.31 34.82 76.46 34.87 76.61 34.91 76.73 34.96 76.83 35 76.92 35.03 76.99 35.06 77.04 35.07 76.66 37.17 76.66 37.17 76.66 37.17" class="d"/>
    <polyline points="76.66 37.17 76.66 37.17 76.56 37.12 76.46 37.08 76.35 37.02 76.24 36.97 76.13 36.92 76 36.88 75.87 36.83 75.73 36.79 75.59 36.75 75.44 36.72 75.29 36.69 75.13 36.67 74.95 36.65 74.78 36.64 74.59 36.64 74.41 36.64 74.41 36.64 74.22 36.64 74.02 36.65 73.81 36.67 73.6 36.71 73.39 36.77 73.18 36.86 72.96 36.96 72.75 37.1 72.55 37.27 72.35 37.46 72.16 37.71 71.98 37.99 71.81 38.32 71.65 38.7 71.5 39.13 71.39 39.61 71.39 39.61 71.34 39.88 71.31 40.15 71.29 40.42 71.3 40.67 71.32 40.93 71.38 41.17 71.44 41.4 71.53 41.63 71.64 41.84 71.78 42.03 71.94 42.21 72.12 42.37 72.33 42.5 72.56 42.62 72.82 42.72 73.11 42.78 73.11 42.78 73.2 42.81 73.32 42.83 73.46 42.84 73.61 42.86 73.77 42.88 73.95 42.88 74.14 42.88 74.33 42.86 74.53 42.84 74.72 42.8 74.91 42.75 75.1 42.69 75.29 42.6 75.47 42.5 75.63 42.38 75.78 42.25 75.44 44.27 75.44 44.27 75.39 44.31 75.35 44.36 75.29 44.41 75.22 44.45 75.13 44.51 75.03 44.57 74.91 44.62 74.77 44.67 74.59 44.72 74.4 44.76 74.17 44.79 73.9 44.82 73.61 44.83 73.27 44.84 72.88 44.83 72.45 44.81 72.45 44.81 72.1 44.77 71.75 44.7 71.41 44.58 71.06 44.43 70.72 44.25 70.4 44.02 70.1 43.76 69.82 43.45 69.57 43.11 69.36 42.73 69.17 42.31 69.04 41.84 68.95 41.33 68.92 40.8 68.93 40.2 69.02 39.57 69.02 39.57 69.08 39.26 69.14 38.96 69.22 38.66 69.3 38.38 69.38 38.12 69.48 37.85 69.58 37.6 69.68 37.37 69.8 37.13 69.91 36.91 70.04 36.7 70.18 36.5 70.31 36.31 70.47 36.13 70.62 35.96 70.78 35.8 70.95 35.65 71.13 35.51 71.31 35.38 71.5 35.25 71.7 35.14 71.91 35.04 72.12 34.95 72.34 34.87 72.58 34.79 72.81 34.73 73.05 34.68 73.31 34.63 73.57 34.59 73.84 34.56 74.12 34.55 74.41 34.54 74.41 34.54 74.65 34.55 74.88 34.56 75.11 34.59 75.34 34.62 75.55 34.65 75.76 34.69 75.95 34.73 76.14 34.78 76.31 34.82 76.46 34.87 76.61 34.91 76.73 34.96 76.83 35 76.92 35.03 76.99 35.06 77.04 35.07 76.66 37.17" class="e"/>
    <polygon points="95.35 44.85 93.25 44.85 93.4 44.01 93.4 43.93 93.28 44.08 93.14 44.22 93.02 44.34 92.88 44.45 92.74 44.55 92.61 44.63 92.47 44.7 92.33 44.77 92.18 44.82 92.04 44.86 91.89 44.89 91.74 44.92 91.59 44.94 91.45 44.95 91.3 44.96 91.14 44.96 90.75 44.93 90.38 44.85 90.05 44.72 89.75 44.55 89.47 44.33 89.23 44.07 89.02 43.79 88.83 43.47 88.68 43.13 88.56 42.77 88.48 42.4 88.42 42.01 88.39 41.62 88.4 41.23 88.44 40.84 88.51 40.45 88.62 40.01 88.76 39.58 88.92 39.19 89.11 38.83 89.31 38.49 89.53 38.18 89.77 37.91 90.02 37.66 90.28 37.44 90.56 37.25 90.85 37.08 91.14 36.95 91.45 36.85 91.75 36.78 92.05 36.73 92.36 36.72 92.58 36.73 92.8 36.75 93 36.79 93.18 36.84 93.35 36.9 93.5 36.97 93.66 37.05 93.79 37.14 93.91 37.23 94.03 37.33 94.13 37.42 94.22 37.52 94.29 37.62 94.36 37.72 94.42 37.81 94.47 37.9 94.47 37.9 95 34.92 97.06 34.92 95.35 44.85 95.35 44.85 95.35 44.85" class="d"/>
    <polyline points="95.35 44.85 93.25 44.85 93.4 44.01 93.4 43.93 93.4 43.93 93.28 44.08 93.14 44.22 93.02 44.34 92.88 44.45 92.74 44.55 92.61 44.63 92.47 44.7 92.33 44.77 92.18 44.82 92.04 44.86 91.89 44.89 91.74 44.92 91.59 44.94 91.45 44.95 91.3 44.96 91.14 44.96 91.14 44.96 90.75 44.93 90.38 44.85 90.05 44.72 89.75 44.55 89.47 44.33 89.23 44.07 89.02 43.79 88.83 43.47 88.68 43.13 88.56 42.77 88.48 42.4 88.42 42.01 88.39 41.62 88.4 41.23 88.44 40.84 88.51 40.45 88.51 40.45 88.62 40.01 88.76 39.58 88.92 39.19 89.11 38.83 89.31 38.49 89.53 38.18 89.77 37.91 90.02 37.66 90.28 37.44 90.56 37.25 90.85 37.08 91.14 36.95 91.45 36.85 91.75 36.78 92.05 36.73 92.36 36.72 92.36 36.72 92.58 36.73 92.8 36.75 93 36.79 93.18 36.84 93.35 36.9 93.5 36.97 93.66 37.05 93.79 37.14 93.91 37.23 94.03 37.33 94.13 37.42 94.22 37.52 94.29 37.62 94.36 37.72 94.42 37.81 94.47 37.9 94.47 37.9 95 34.92 97.06 34.92 95.35 44.85" class="e"/>
    <polygon points="91.91 43.01 92.12 43 92.32 42.95 92.5 42.9 92.68 42.81 92.83 42.73 92.99 42.61 93.13 42.48 93.26 42.34 93.37 42.19 93.48 42.02 93.58 41.85 93.66 41.67 93.74 41.48 93.8 41.28 93.85 41.08 93.89 40.87 93.93 40.66 93.95 40.44 93.95 40.23 93.94 40.02 93.92 39.82 93.89 39.63 93.84 39.45 93.78 39.28 93.7 39.13 93.61 38.98 93.51 38.86 93.4 38.75 93.27 38.66 93.13 38.6 92.99 38.56 92.83 38.55 92.62 38.56 92.43 38.59 92.26 38.66 92.08 38.73 91.93 38.83 91.78 38.95 91.65 39.08 91.52 39.23 91.41 39.39 91.3 39.57 91.2 39.75 91.12 39.95 91.04 40.15 90.98 40.36 90.92 40.58 90.88 40.8 90.84 41.13 90.85 41.49 90.91 41.87 91.01 42.22 91.16 42.53 91.36 42.78 91.61 42.95 91.91 43.01 91.91 43.01 91.91 43.01" class="b"/>
    <polygon points="45.3 43.16 44.99 44.85 43.08 44.85 43.13 44.54 43.17 44.26 43.2 44.04 43.23 43.93 43.12 44.05 43 44.17 42.86 44.29 42.7 44.39 42.52 44.5 42.33 44.59 42.13 44.68 41.92 44.76 41.7 44.83 41.48 44.88 41.26 44.92 41.04 44.95 40.81 44.97 40.6 44.98 40.38 44.95 40.18 44.92 39.91 44.86 39.67 44.78 39.46 44.68 39.27 44.57 39.1 44.45 38.95 44.31 38.83 44.16 38.72 44.01 38.63 43.85 38.55 43.69 38.49 43.52 38.45 43.35 38.42 43.18 38.39 43 38.38 42.84 38.38 42.67 38.4 42.37 38.45 42.09 38.52 41.83 38.62 41.57 38.74 41.33 38.88 41.11 39.04 40.9 39.22 40.7 39.41 40.53 39.62 40.37 39.84 40.23 40.07 40.1 40.31 40 40.56 39.91 40.82 39.85 41.09 39.8 41.1 39.8 41.14 39.79 41.2 39.79 41.28 39.78 41.37 39.76 41.48 39.76 41.59 39.74 41.72 39.73 41.85 39.71 41.98 39.7 42.12 39.69 42.23 39.67 42.36 39.66 42.47 39.66 42.58 39.65 42.66 39.65 42.84 39.65 43.02 39.66 43.18 39.66 43.35 39.66 43.49 39.67 43.59 39.68 43.67 39.69 43.69 39.69 43.71 39.63 43.75 39.5 43.79 39.34 43.81 39.19 43.77 39.03 43.71 38.87 43.62 38.74 43.49 38.62 43.35 38.53 43.19 38.46 43.01 38.41 42.81 38.4 42.6 38.39 42.37 38.38 42.14 38.38 41.89 38.39 41.64 38.41 41.4 38.43 41.16 38.45 40.92 38.48 40.69 38.51 40.47 38.55 40.28 38.59 40.09 38.62 39.93 38.67 39.79 38.72 39.69 38.77 39.6 38.81 40.14 36.98 40.31 36.92 40.47 36.86 40.66 36.8 40.84 36.76 41.02 36.73 41.22 36.7 41.41 36.67 41.62 36.65 41.83 36.64 42.05 36.63 42.28 36.62 42.52 36.62 42.76 36.62 43.01 36.62 43.27 36.63 43.54 36.64 43.75 36.65 43.98 36.69 44.22 36.74 44.46 36.81 44.69 36.9 44.92 37.01 45.15 37.14 45.36 37.28 45.55 37.45 45.72 37.63 45.87 37.83 45.98 38.06 46.06 38.31 46.1 38.56 46.1 38.85 46.06 39.16 45.3 43.16 45.3 43.16 45.3 43.16" class="d"/>
    <polyline points="45.3 43.16 44.99 44.85 43.08 44.85 43.08 44.85 43.13 44.54 43.17 44.26 43.2 44.04 43.23 43.93 43.23 43.93 43.12 44.05 43 44.17 42.86 44.29 42.7 44.39 42.52 44.5 42.33 44.59 42.13 44.68 41.92 44.76 41.7 44.83 41.48 44.88 41.26 44.92 41.04 44.95 40.81 44.97 40.6 44.98 40.38 44.95 40.18 44.92 40.18 44.92 39.91 44.86 39.67 44.78 39.46 44.68 39.27 44.57 39.1 44.45 38.95 44.31 38.83 44.16 38.72 44.01 38.63 43.85 38.55 43.69 38.49 43.52 38.45 43.35 38.42 43.18 38.39 43 38.38 42.84 38.38 42.67 38.38 42.67 38.4 42.37 38.45 42.09 38.52 41.83 38.62 41.57 38.74 41.33 38.88 41.11 39.04 40.9 39.22 40.7 39.41 40.53 39.62 40.37 39.84 40.23 40.07 40.1 40.31 40 40.56 39.91 40.82 39.85 41.09 39.8 41.09 39.8 41.1 39.8 41.14 39.79 41.2 39.79 41.28 39.78 41.37 39.76 41.48 39.76 41.59 39.74 41.72 39.73 41.85 39.71 41.98 39.7 42.12 39.69 42.23 39.67 42.36 39.66 42.47 39.66 42.58 39.65 42.66 39.65 42.66 39.65 42.84 39.65 43.02 39.66 43.18 39.66 43.35 39.66 43.49 39.67 43.59 39.68 43.67 39.69 43.69 39.69 43.69 39.69 43.71 39.63 43.75 39.5 43.79 39.34 43.81 39.19 43.81 39.19 43.77 39.03 43.71 38.87 43.62 38.74 43.49 38.62 43.35 38.53 43.19 38.46 43.01 38.41 42.81 38.4 42.81 38.4 42.6 38.39 42.37 38.38 42.14 38.38 41.89 38.39 41.64 38.41 41.4 38.43 41.16 38.45 40.92 38.48 40.69 38.51 40.47 38.55 40.28 38.59 40.09 38.62 39.93 38.67 39.79 38.72 39.69 38.77 39.6 38.81 40.14 36.98 40.14 36.98 40.31 36.92 40.47 36.86 40.66 36.8 40.84 36.76 41.02 36.73 41.22 36.7 41.41 36.67 41.62 36.65 41.83 36.64 42.05 36.63 42.28 36.62 42.52 36.62 42.76 36.62 43.01 36.62 43.27 36.63 43.54 36.64 43.54 36.64 43.75 36.65 43.98 36.69 44.22 36.74 44.46 36.81 44.69 36.9 44.92 37.01 45.15 37.14 45.36 37.28 45.55 37.45 45.72 37.63 45.87 37.83 45.98 38.06 46.06 38.31 46.1 38.56 46.1 38.85 46.06 39.16 45.3 43.16" class="e"/>
    <polygon points="43.47 41.18 43.46 41.15 43.43 41.11 43.38 41.08 43.31 41.07 43.22 41.05 43.12 41.05 43.01 41.05 42.89 41.05 42.77 41.05 42.65 41.07 42.52 41.08 42.4 41.1 42.29 41.12 42.18 41.14 42.09 41.16 42.01 41.18 41.95 41.2 41.89 41.22 41.81 41.25 41.73 41.29 41.63 41.33 41.53 41.39 41.42 41.44 41.32 41.5 41.22 41.58 41.12 41.65 41.03 41.74 40.95 41.84 40.87 41.93 40.81 42.04 40.77 42.16 40.75 42.28 40.74 42.54 40.78 42.75 40.85 42.9 40.95 43.01 41.07 43.09 41.2 43.13 41.32 43.16 41.44 43.16 41.66 43.16 41.87 43.13 42.07 43.1 42.24 43.06 42.39 43 42.54 42.94 42.67 42.87 42.78 42.78 42.88 42.71 42.97 42.62 43.05 42.53 43.11 42.44 43.16 42.35 43.21 42.26 43.24 42.18 43.27 42.09 43.33 41.87 43.38 41.62 43.43 41.38 43.47 41.18 43.47 41.18 43.47 41.18" class="c"/>
    <polygon points="29.32 44.85 27.26 44.85 28.98 34.88 32.57 34.88 32.91 40.8 35.4 34.88 39.15 34.88 37.38 44.85 35.32 44.85 36.63 37.4 36.54 37.4 33.45 44.85 31.12 44.85 31.11 44.54 31.05 43.71 30.99 42.53 30.91 41.18 30.83 39.82 30.77 38.63 30.71 37.77 30.7 37.4 30.68 37.4 30.63 37.4 30.58 37.4 30.58 37.4 29.32 44.85 29.32 44.85 29.32 44.85" class="d"/>
    <polyline points="29.32 44.85 27.26 44.85 28.98 34.88 32.57 34.88 32.91 40.8 35.4 34.88 39.15 34.88 37.38 44.85 35.32 44.85 36.63 37.4 36.54 37.4 33.45 44.85 31.12 44.85 31.12 44.85 31.11 44.54 31.05 43.71 30.99 42.53 30.91 41.18 30.83 39.82 30.77 38.63 30.71 37.77 30.7 37.4 30.7 37.4 30.68 37.4 30.63 37.4 30.58 37.4 30.58 37.4 29.32 44.85" class="e"/>
    <polygon points="82.97 43.16 82.66 44.85 80.75 44.85 80.77 44.54 80.77 44.27 80.77 44.06 80.79 43.97 80.69 44.08 80.58 44.2 80.44 44.3 80.29 44.41 80.13 44.51 79.95 44.6 79.76 44.69 79.57 44.77 79.36 44.83 79.15 44.89 78.94 44.92 78.72 44.95 78.5 44.97 78.29 44.98 78.09 44.95 77.88 44.92 77.61 44.86 77.37 44.78 77.15 44.68 76.95 44.57 76.79 44.45 76.64 44.31 76.52 44.16 76.42 44.01 76.33 43.85 76.26 43.69 76.2 43.52 76.16 43.35 76.13 43.18 76.11 43 76.09 42.84 76.09 42.67 76.11 42.37 76.15 42.09 76.22 41.83 76.32 41.57 76.43 41.33 76.58 41.11 76.73 40.9 76.91 40.7 77.11 40.53 77.31 40.37 77.53 40.23 77.77 40.1 78 40 78.25 39.91 78.5 39.85 78.76 39.8 78.78 39.8 78.81 39.79 78.87 39.79 78.94 39.78 79.04 39.76 79.15 39.76 79.26 39.74 79.38 39.73 79.51 39.71 79.65 39.7 79.78 39.69 79.91 39.67 80.03 39.66 80.14 39.66 80.24 39.65 80.33 39.65 80.51 39.65 80.69 39.66 80.86 39.66 81.03 39.66 81.18 39.67 81.3 39.68 81.36 39.69 81.4 39.69 81.41 39.63 81.44 39.5 81.46 39.34 81.47 39.19 81.44 39.03 81.38 38.87 81.28 38.74 81.17 38.62 81.03 38.53 80.87 38.46 80.7 38.41 80.52 38.4 80.31 38.39 80.08 38.38 79.85 38.38 79.6 38.39 79.35 38.41 79.11 38.43 78.87 38.45 78.63 38.48 78.4 38.51 78.19 38.55 77.99 38.59 77.81 38.62 77.64 38.67 77.5 38.72 77.39 38.77 77.31 38.81 77.84 36.98 78.01 36.92 78.19 36.86 78.36 36.8 78.54 36.76 78.73 36.73 78.92 36.7 79.12 36.67 79.32 36.65 79.54 36.64 79.76 36.63 79.98 36.62 80.21 36.62 80.45 36.62 80.69 36.62 80.95 36.63 81.21 36.64 81.42 36.65 81.65 36.69 81.88 36.74 82.13 36.81 82.36 36.9 82.59 37.01 82.82 37.14 83.03 37.28 83.23 37.45 83.4 37.63 83.55 37.83 83.67 38.06 83.75 38.31 83.8 38.56 83.8 38.85 83.77 39.16 82.97 43.16 82.97 43.16 82.97 43.16" class="d"/>
    <polygon points="82.66 44.9 82.7 44.86 83.01 43.17 82.92 43.16 82.61 44.84 82.66 44.8 82.66 44.9 82.69 44.89 82.7 44.86 82.66 44.9 82.66 44.9 82.66 44.9" class="d"/>
    <polygon points="80.7 44.85 80.75 44.9 82.66 44.9 82.66 44.8 80.75 44.8 80.8 44.85 80.7 44.85 80.7 44.9 80.75 44.9 80.7 44.85 80.7 44.85 80.7 44.85" class="d"/>
    <polygon points="80.83 44 80.76 43.94 80.73 44.06 80.72 44.27 80.72 44.54 80.7 44.85 80.8 44.85 80.81 44.54 80.83 44.27 80.82 44.06 80.82 44 80.75 43.94 80.83 44 80.83 44 80.83 44" class="d"/>
    <polygon points="77.87 44.97 77.87 44.97 78.09 45 78.29 45.02 78.5 45.02 78.72 45 78.94 44.97 79.16 44.93 79.37 44.87 79.58 44.81 79.77 44.73 79.97 44.65 80.15 44.55 80.31 44.45 80.47 44.34 80.61 44.23 80.73 44.11 80.83 44 80.75 43.94 80.65 44.05 80.55 44.16 80.41 44.27 80.27 44.37 80.11 44.46 79.92 44.55 79.74 44.65 79.55 44.72 79.35 44.78 79.14 44.84 78.93 44.88 78.72 44.91 78.5 44.92 78.29 44.93 78.09 44.91 77.89 44.88 77.89 44.88 77.87 44.97 77.87 44.97 77.87 44.97" class="d"/>
    <polygon points="76.04 42.67 76.04 42.67 76.04 42.84 76.06 43 76.08 43.19 76.11 43.36 76.15 43.53 76.21 43.7 76.28 43.88 76.38 44.04 76.48 44.2 76.61 44.34 76.76 44.48 76.93 44.61 77.13 44.73 77.35 44.83 77.6 44.9 77.87 44.97 77.89 44.88 77.62 44.81 77.38 44.73 77.17 44.64 76.98 44.53 76.82 44.41 76.68 44.28 76.56 44.13 76.45 43.99 76.37 43.83 76.3 43.67 76.24 43.51 76.2 43.35 76.17 43.17 76.15 43 76.14 42.84 76.14 42.67 76.14 42.67 76.04 42.67 76.04 42.67 76.04 42.67" class="d"/>
    <polygon points="78.76 39.76 78.76 39.76 78.5 39.8 78.24 39.87 77.99 39.95 77.75 40.06 77.51 40.18 77.28 40.33 77.08 40.49 76.88 40.67 76.7 40.86 76.54 41.08 76.39 41.3 76.27 41.55 76.17 41.81 76.11 42.09 76.06 42.37 76.04 42.67 76.14 42.67 76.15 42.37 76.2 42.1 76.27 41.84 76.36 41.59 76.48 41.35 76.61 41.14 76.77 40.92 76.94 40.73 77.14 40.57 77.34 40.41 77.55 40.27 77.79 40.15 78.02 40.04 78.27 39.96 78.51 39.89 78.76 39.85 78.76 39.85 78.76 39.76 78.76 39.76 78.76 39.76" class="d"/>
    <polygon points="80.33 39.6 80.33 39.6 80.24 39.6 80.14 39.61 80.03 39.62 79.91 39.63 79.78 39.64 79.65 39.65 79.51 39.66 79.38 39.68 79.26 39.7 79.15 39.71 79.04 39.72 78.94 39.73 78.87 39.74 78.81 39.75 78.78 39.76 78.76 39.76 78.76 39.85 78.78 39.85 78.82 39.84 78.87 39.83 78.94 39.82 79.04 39.81 79.15 39.8 79.26 39.79 79.38 39.77 79.51 39.76 79.65 39.74 79.78 39.73 79.91 39.72 80.03 39.71 80.14 39.7 80.24 39.7 80.33 39.7 80.33 39.7 80.33 39.6 80.33 39.6 80.33 39.6" class="d"/>
    <polygon points="81.35 39.68 81.4 39.64 81.36 39.64 81.3 39.63 81.18 39.63 81.03 39.61 80.86 39.61 80.69 39.61 80.51 39.6 80.33 39.6 80.33 39.7 80.51 39.7 80.69 39.7 80.86 39.72 81.03 39.72 81.18 39.72 81.3 39.73 81.36 39.73 81.4 39.73 81.44 39.7 81.4 39.73 81.44 39.74 81.44 39.7 81.35 39.68 81.35 39.68 81.35 39.68" class="d"/>
    <polygon points="81.43 39.19 81.42 39.19 81.41 39.34 81.39 39.49 81.36 39.63 81.35 39.68 81.44 39.7 81.46 39.64 81.48 39.5 81.5 39.34 81.52 39.19 81.52 39.19 81.43 39.19 81.43 39.19 81.43 39.19" class="d"/>
    <polygon points="80.52 38.44 80.52 38.45 80.7 38.46 80.86 38.5 81.01 38.57 81.14 38.66 81.24 38.77 81.33 38.9 81.4 39.03 81.43 39.19 81.52 39.19 81.49 39.02 81.43 38.85 81.32 38.71 81.2 38.59 81.06 38.48 80.89 38.41 80.71 38.37 80.52 38.34 80.52 38.35 80.52 38.44 80.52 38.44 80.52 38.44" class="d"/>
    <polygon points="77.27 38.81 77.34 38.85 77.42 38.81 77.52 38.76 77.65 38.72 77.81 38.67 78 38.63 78.19 38.59 78.41 38.56 78.63 38.53 78.87 38.49 79.11 38.47 79.35 38.45 79.6 38.44 79.85 38.44 80.08 38.44 80.31 38.44 80.52 38.44 80.52 38.35 80.31 38.34 80.08 38.33 79.85 38.33 79.6 38.34 79.35 38.36 79.11 38.38 78.87 38.41 78.63 38.44 78.4 38.46 78.18 38.5 77.98 38.54 77.8 38.58 77.63 38.62 77.49 38.67 77.37 38.72 77.28 38.78 77.36 38.82 77.27 38.81 77.27 38.81 77.27 38.81" class="d"/>
    <polygon points="77.83 36.94 77.8 36.98 77.27 38.81 77.36 38.82 77.89 36.99 77.86 37.03 77.83 36.94 77.81 36.95 77.8 36.98 77.83 36.94 77.83 36.94 77.83 36.94" class="d"/>
    <polygon points="81.21 36.59 81.21 36.59 80.95 36.58 80.69 36.57 80.45 36.57 80.21 36.57 79.98 36.57 79.76 36.58 79.54 36.59 79.32 36.61 79.12 36.62 78.91 36.65 78.72 36.68 78.53 36.72 78.35 36.76 78.17 36.81 78 36.87 77.83 36.94 77.86 37.03 78.03 36.96 78.2 36.9 78.37 36.85 78.55 36.81 78.74 36.77 78.93 36.74 79.12 36.71 79.32 36.7 79.54 36.68 79.76 36.67 79.98 36.67 80.21 36.67 80.45 36.67 80.69 36.67 80.95 36.68 81.21 36.68 81.21 36.68 81.21 36.59 81.21 36.59 81.21 36.59" class="d"/>
    <polygon points="83.81 39.16 83.81 39.16 83.85 38.85 83.85 38.56 83.8 38.3 83.71 38.05 83.59 37.81 83.44 37.6 83.25 37.41 83.07 37.24 82.85 37.1 82.62 36.96 82.38 36.86 82.14 36.76 81.89 36.7 81.65 36.64 81.42 36.61 81.21 36.59 81.21 36.68 81.42 36.7 81.64 36.73 81.87 36.79 82.11 36.86 82.34 36.95 82.57 37.05 82.8 37.17 83 37.32 83.19 37.48 83.36 37.66 83.51 37.86 83.62 38.08 83.7 38.31 83.76 38.56 83.76 38.85 83.72 39.15 83.72 39.15 83.81 39.16 83.81 39.16 83.81 39.16" class="d"/>
    <polygon points="83.01 43.17 83.01 43.17 83.81 39.16 83.72 39.15 82.92 43.16 82.92 43.16 83.01 43.17 83.01 43.17 83.01 43.17" class="d"/>
    <polygon points="81.13 41.18 81.11 41.14 81.09 41.1 81.03 41.08 80.96 41.05 80.87 41.05 80.77 41.04 80.66 41.04 80.55 41.05 80.42 41.06 80.3 41.08 80.18 41.09 80.07 41.11 79.95 41.13 79.86 41.15 79.76 41.17 79.68 41.18 79.63 41.19 79.57 41.21 79.49 41.24 79.41 41.27 79.31 41.31 79.22 41.36 79.11 41.41 79.01 41.48 78.91 41.55 78.81 41.63 78.73 41.71 78.65 41.81 78.58 41.92 78.53 42.03 78.48 42.15 78.46 42.28 78.45 42.54 78.49 42.75 78.55 42.9 78.64 43.01 78.75 43.09 78.88 43.13 79.01 43.16 79.14 43.16 79.37 43.16 79.58 43.13 79.78 43.09 79.95 43.04 80.12 42.98 80.27 42.91 80.4 42.84 80.52 42.75 80.63 42.66 80.72 42.56 80.8 42.47 80.87 42.37 80.92 42.28 80.96 42.19 80.99 42.1 81.02 42.02 81.05 41.8 81.09 41.59 81.11 41.37 81.13 41.18 81.13 41.18 81.13 41.18" class="b"/>
    <polygon points="96.77 43.81 96.78 43.63 96.84 43.43 96.95 43.25 97.08 43.09 97.24 42.96 97.42 42.87 97.62 42.81 97.83 42.78 98.04 42.81 98.24 42.87 98.42 42.96 98.58 43.09 98.71 43.25 98.82 43.43 98.88 43.63 98.89 43.81 98.67 43.81 98.66 43.67 98.61 43.51 98.54 43.35 98.44 43.22 98.32 43.12 98.17 43.04 98 42.99 97.83 42.97 97.66 42.99 97.49 43.04 97.34 43.12 97.22 43.22 97.12 43.35 97.05 43.51 97 43.67 96.99 43.81 96.77 43.81 96.77 43.81 96.77 43.81" class="d"/>
    <polygon points="97.45 43.81 97.45 43.35 97.87 43.35 97.96 43.36 98.04 43.38 98.1 43.4 98.16 43.43 98.19 43.48 98.22 43.52 98.24 43.57 98.25 43.63 98.24 43.7 98.22 43.75 98.2 43.79 98.19 43.81 97.87 43.81 97.9 43.8 97.95 43.79 98 43.78 98.03 43.76 98.06 43.74 98.08 43.72 98.09 43.68 98.09 43.63 98.09 43.59 98.07 43.56 98.05 43.54 98.03 43.53 97.99 43.52 97.95 43.51 97.91 43.51 97.87 43.51 97.64 43.51 97.64 43.81 97.45 43.81 97.45 43.81 97.45 43.81" class="d"/>
    <polygon points="96.77 43.81 96.76 43.85 96.78 44.08 96.84 44.28 96.95 44.46 97.08 44.61 97.24 44.74 97.42 44.84 97.62 44.9 97.83 44.92 98.04 44.9 98.24 44.84 98.42 44.74 98.58 44.61 98.71 44.46 98.82 44.28 98.88 44.08 98.9 43.85 98.89 43.81 98.67 43.81 98.67 43.85 98.66 44.04 98.61 44.2 98.54 44.35 98.44 44.48 98.32 44.58 98.17 44.67 98 44.72 97.83 44.73 97.66 44.72 97.49 44.67 97.34 44.58 97.22 44.48 97.12 44.35 97.05 44.2 97 44.04 96.99 43.85 96.99 43.81 96.77 43.81 96.77 43.81 96.77 43.81" class="d"/>
    <polygon points="97.45 43.81 97.45 44.27 97.64 44.27 97.64 43.89 97.83 43.89 98.06 44.27 98.21 44.27 97.98 43.89 98.03 43.89 98.09 43.88 98.13 43.86 98.17 43.83 98.19 43.81 97.87 43.81 97.83 43.82 97.64 43.82 97.64 43.81 97.45 43.81 97.45 43.81 97.45 43.81" class="d"/>
    <path d="M96.76,43.85h0l0-.22.06-.2.11-.18.13-.16.16-.13.18-.09.2-.06.21,0h0l.21,0,.2.06.18.09.16.13.13.16.11.18.06.2,0,.22h0l0,.22-.06.21-.11.18-.13.15-.16.13-.18.1-.2.06-.21,0h0l-.21,0-.2-.06-.18-.1-.16-.13L97,44.46l-.11-.18-.06-.21,0-.22m.88.42h-.19v-.92H98l.08,0,.06,0,.06,0,0,0,0,0,0,0v.06h0v.06l0,.06,0,0,0,0,0,0,0,0H98l.23.38h-.15l-.23-.38h-.19v.38m.19-.45h0l.07,0H98l0,0,0,0v0l0,0v0h0v0l0,0,0,0h-.41v.31h.19m0,.91H98l.17,0,.15-.09.12-.1.1-.13.07-.15,0-.16v-.19h0v-.18l0-.17-.07-.15-.1-.13-.12-.1L98.17,43,98,43l-.17,0h0l-.17,0-.17,0-.15.08-.12.1-.1.13-.07.15,0,.17v.18h0V44l0,.16.07.15.1.13.12.1.15.09.17,0h.17" class="e"/>
    <polygon points="83.54 44.85 85.68 44.85 85.68 44.85 86.44 40.53 86.47 40.36 86.52 40.2 86.56 40.03 86.63 39.86 86.7 39.7 86.79 39.53 86.89 39.38 87.01 39.24 87.15 39.11 87.3 38.99 87.48 38.87 87.67 38.78 87.89 38.71 88.14 38.65 88.4 38.6 88.7 38.59 88.81 38.59 88.86 38.59 88.89 38.59 88.89 38.59 89.23 36.64 89.02 36.65 88.81 36.67 88.62 36.71 88.44 36.76 88.27 36.83 88.11 36.9 87.96 36.98 87.82 37.08 87.68 37.18 87.55 37.29 87.43 37.41 87.31 37.53 87.19 37.66 87.08 37.8 86.97 37.94 86.86 38.09 87.09 36.72 84.96 36.72 83.54 44.85 83.54 44.85 83.54 44.85 83.54 44.85" class="d"/>
    <polyline points="83.54 44.85 85.68 44.85 85.68 44.85 86.44 40.53 86.44 40.53 86.47 40.36 86.52 40.2 86.56 40.03 86.63 39.86 86.7 39.7 86.79 39.53 86.89 39.38 87.01 39.24 87.15 39.11 87.3 38.99 87.48 38.87 87.67 38.78 87.89 38.71 88.14 38.65 88.4 38.6 88.7 38.59 88.7 38.59 88.81 38.59 88.86 38.59 88.89 38.59 88.89 38.59 89.23 36.64 89.23 36.64 89.02 36.65 88.81 36.67 88.62 36.71 88.44 36.76 88.27 36.83 88.11 36.9 87.96 36.98 87.82 37.08 87.68 37.18 87.55 37.29 87.43 37.41 87.31 37.53 87.19 37.66 87.08 37.8 86.97 37.94 86.86 38.09 87.09 36.72 84.96 36.72 83.54 44.85 83.54 44.85" class="e"/>
    <polygon points="63.44 44.85 65.58 44.85 65.61 44.85 66.34 40.53 66.37 40.36 66.41 40.2 66.45 40.04 66.5 39.89 66.56 39.74 66.64 39.6 66.73 39.46 66.84 39.33 66.96 39.22 67.09 39.1 67.26 39.01 67.44 38.93 67.66 38.86 67.89 38.8 68.15 38.76 68.44 38.74 68.47 38.74 68.5 38.75 68.54 38.75 68.58 38.75 68.61 38.76 68.64 38.77 68.67 38.78 68.67 38.78 68.68 38.75 68.7 38.66 68.73 38.52 68.77 38.35 68.83 38.15 68.88 37.94 68.95 37.73 69.02 37.52 69.08 37.37 69.15 37.23 69.23 37.08 69.3 36.95 69.37 36.84 69.42 36.75 69.46 36.7 69.48 36.67 69.47 36.67 69.44 36.67 69.4 36.66 69.35 36.65 69.3 36.65 69.24 36.64 69.18 36.64 69.13 36.64 68.89 36.65 68.68 36.67 68.48 36.71 68.3 36.76 68.13 36.82 67.97 36.9 67.82 36.97 67.69 37.06 67.56 37.16 67.44 37.27 67.32 37.39 67.21 37.52 67.09 37.65 66.99 37.79 66.88 37.94 66.76 38.09 67.03 36.72 64.86 36.72 63.44 44.85 63.44 44.85 63.44 44.85 63.44 44.85" class="d"/>
    <polyline points="63.44 44.85 65.58 44.85 65.61 44.85 66.34 40.53 66.34 40.53 66.37 40.36 66.41 40.2 66.45 40.04 66.5 39.89 66.56 39.74 66.64 39.6 66.73 39.46 66.84 39.33 66.96 39.22 67.09 39.1 67.26 39.01 67.44 38.93 67.66 38.86 67.89 38.8 68.15 38.76 68.44 38.74 68.44 38.74 68.47 38.74 68.5 38.75 68.54 38.75 68.58 38.75 68.61 38.76 68.64 38.77 68.67 38.78 68.67 38.78 68.67 38.78 68.68 38.75 68.7 38.66 68.73 38.52 68.77 38.35 68.83 38.15 68.88 37.94 68.95 37.73 69.02 37.52 69.02 37.52 69.08 37.37 69.15 37.23 69.23 37.08 69.3 36.95 69.37 36.84 69.42 36.75 69.46 36.7 69.48 36.67 69.48 36.67 69.47 36.67 69.44 36.67 69.4 36.66 69.35 36.65 69.3 36.65 69.24 36.64 69.18 36.64 69.13 36.64 69.13 36.64 68.89 36.65 68.68 36.67 68.48 36.71 68.3 36.76 68.13 36.82 67.97 36.9 67.82 36.97 67.69 37.06 67.56 37.16 67.44 37.27 67.32 37.39 67.21 37.52 67.09 37.65 66.99 37.79 66.88 37.94 66.76 38.09 67.03 36.72 64.86 36.72 63.44 44.85 63.44 44.85" class="e"/>
    <polygon points="96.78 52.83 96.78 52.8 96.84 52.61 96.95 52.43 97.08 52.28 97.24 52.16 97.42 52.07 97.62 52.02 97.83 51.99 98.04 52.02 98.24 52.07 98.42 52.16 98.58 52.28 98.71 52.43 98.82 52.61 98.88 52.8 98.88 52.83 98.66 52.83 98.61 52.68 98.54 52.53 98.44 52.4 98.32 52.3 98.17 52.21 98 52.16 97.83 52.14 97.66 52.16 97.49 52.21 97.34 52.3 97.22 52.4 97.12 52.53 97.05 52.68 97 52.83 96.78 52.83 96.78 52.83 96.78 52.83" class="b"/>
    <polygon points="97.45 52.83 97.45 52.57 97.87 52.57 97.96 52.57 98.04 52.58 98.1 52.6 98.16 52.63 98.19 52.67 98.22 52.71 98.24 52.77 98.25 52.83 98.09 52.83 98.09 52.8 98.09 52.76 98.07 52.73 98.05 52.71 98.03 52.7 97.99 52.69 97.95 52.68 97.91 52.68 97.87 52.68 97.64 52.68 97.64 52.83 97.45 52.83 97.45 52.83 97.45 52.83" class="b"/>
    <polygon points="96.76 53 96.78 52.83 97 52.83 97 52.84 96.99 53 96.76 53 96.76 53 96.76 53" class="b"/>
    <polygon points="97.45 53 97.45 52.83 97.64 52.83 97.64 52.99 97.83 52.99 97.9 52.97 97.95 52.96 98 52.95 98.03 52.93 98.06 52.91 98.08 52.89 98.09 52.85 98.09 52.83 98.25 52.83 98.25 52.83 98.24 52.89 98.22 52.93 98.2 52.97 98.17 53 97.45 53 97.45 53 97.45 53" class="b"/>
    <polygon points="98.67 53 98.66 52.84 98.66 52.83 98.88 52.83 98.9 53 98.67 53 98.67 53 98.67 53" class="b"/>
    <polygon points="96.76 53 96.76 53.02 96.78 53.24 96.84 53.45 96.95 53.63 97.08 53.79 97.24 53.92 97.42 54.01 97.62 54.07 97.83 54.09 98.04 54.07 98.24 54.01 98.42 53.92 98.58 53.79 98.71 53.63 98.82 53.45 98.88 53.24 98.9 53.02 98.9 53 98.67 53 98.67 53.02 98.66 53.21 98.61 53.37 98.54 53.52 98.44 53.65 98.32 53.75 98.17 53.84 98 53.89 97.83 53.91 97.66 53.89 97.49 53.84 97.34 53.75 97.22 53.65 97.12 53.52 97.05 53.37 97 53.21 96.99 53.02 96.99 53 96.76 53 96.76 53 96.76 53" class="b"/>
    <polygon points="97.45 53 97.45 53.44 97.64 53.44 97.64 53.06 97.83 53.06 98.06 53.44 98.21 53.44 97.98 53.06 98.03 53.06 98.09 53.05 98.13 53.03 98.17 53 98.17 53 97.45 53 97.45 53 97.45 53" class="b"/>
    <path d="M63.67,39.14l-.06-.45-.11-.41-.15-.35-.19-.3-.22-.26-.25-.21L62.41,37l-.29-.14-.31-.11-.31-.08-.31,0-.31,0h-.3l-.61,0-.55.09-.49.14-.44.19-.38.23-.34.25-.29.29-.25.31L57,38.4l-.17.34-.14.33-.11.32-.09.32-.06.3,0,.28,0,.24,0,.62,0,.56.09.51.12.45.19.4.22.35.25.31.3.26.32.22.34.19.36.15.37.11.38.09.38,0,.38,0h1.43l.16,0h.15l.14,0,.13,0,.12,0,.12,0,.12,0,.11,0,.12,0,.12-.07.12-.06.31-1.86-.22.13-.21.12-.22.09-.22.08-.2.07-.21,0-.21,0-.2,0-.21,0h-.6l-.2,0-.19,0-.19,0-.2,0-.15,0L59.63,43l-.16-.06-.13-.09-.14-.09-.12-.11L59,42.53l-.1-.13-.09-.12-.08-.15L58.62,42l0-.14,0-.14v-.28l0-.1h4.92l0-.46.12-.64,0-.57Zm-2.06.7H58.84l0-.1,0-.16,0-.16.06-.15.07-.13.06-.13.09-.13.09-.11.1-.11.1-.09.11-.08.11-.07.13-.06.13,0,.13,0,.14,0h.14l.14,0,.13,0,.12,0,.12,0,.11.06.12.07.1.07.09.09.07.11.08.11.05.13.06.15,0,.15v.35Z" class="d"/>
</svg>
