<svg xmlns="http://www.w3.org/2000/svg" viewBox="0 0 125.43 78.39">
    <defs>
        <style>
            .a{fill:#f9f9f9;}.b{fill:#e21836;}.c{fill:#00447c;}.d{fill:#007b84;}.e{fill:#fefefe;}
        </style>
    </defs>
    <title>
        Union Pay
    </title>
    <rect width="125.43" height="78.39" class="a" rx="4.18" ry="4.18"/>
    <path d="M37.15,13.56H57.73a4,4,0,0,1,4,5.22L52.14,59.92a7,7,0,0,1-6.43,5.22H25.13a4,4,0,0,1-4-5.22l9.58-41.14a7,7,0,0,1,6.43-5.22" class="b"/>
    <path d="M56,13.56H79.68c2.88,0,1.58,2.34.91,5.22L71,59.92c-.68,2.88-.47,5.22-3.35,5.22H44a4,4,0,0,1-4-5.22l9.58-41.14A7,7,0,0,1,56,13.56" class="c"/>
    <path d="M78.75,13.56H99.33a4,4,0,0,1,4,5.22L93.74,59.92a7,7,0,0,1-6.44,5.22H66.73a4,4,0,0,1-4-5.22l9.58-41.14a7,7,0,0,1,6.43-5.22" class="d"/>
    <path d="M42.52,26.74a21.39,21.39,0,0,1-2.94,0c-.08.37-1.5,7-1.51,7-.31,1.34-.53,2.29-1.29,2.9a2.29,2.29,0,0,1-1.52.53,1.41,1.41,0,0,1-1.58-1.35v-.31L34,33.63s1.5-6,1.77-6.8a.51.51,0,0,0,0-.09,20.31,20.31,0,0,1-3.47,0c0,.07-.09.44-.09.44L30.65,33.9l-.13.57-.26,1.88a2.7,2.7,0,0,0,.33,1.39c.7,1.22,2.69,1.41,3.81,1.41a7.43,7.43,0,0,0,3.73-.87,5.52,5.52,0,0,0,2.38-3.73l.18-.67s1.54-6.24,1.8-7.05A.46.46,0,0,1,42.52,26.74Zm5.26,5a4.07,4.07,0,0,0-1.67.39l-.65.38.2-.72-.11-.12c-1.3.26-1.59.29-2.78.46l-.1.07a36.75,36.75,0,0,1-.78,4.28c-.2.84-.4,1.68-.61,2.51l.06.11c1.23-.07,1.6-.07,2.66-.05l.09-.09c.14-.7.15-.86.45-2.26.14-.67.44-2.13.58-2.66a2.06,2.06,0,0,1,.78-.24c.6,0,.53.52.51.73s-.25,1.49-.47,2.46l-.15.63c-.1.47-.22.92-.32,1.39l0,.09c1.21-.07,1.58-.07,2.61-.05l.13-.09c.18-1.09.24-1.38.57-3l.16-.73c.33-1.42.49-2.14.25-2.72A1.41,1.41,0,0,0,47.78,31.77Zm5.86,1.49c-.64.12-1,.2-1.46.26l-1.41.21-.05,0,0,0c-.06.46-.11.86-.19,1.33s-.19,1-.37,1.83a7,7,0,0,1-.29,1,8.7,8.7,0,0,0-.33,1l0,.06,0,.05c.58,0,1-.05,1.35-.05s.79,0,1.42,0l.05,0,.06,0c.09-.54.11-.69.16-1s.15-.67.38-1.71c.11-.49.23-1,.35-1.48s.24-1,.36-1.48l0-.06Zm0-2a2.36,2.36,0,0,0-2.3.25c-.69.46-.77,1.12-.18,1.47a2.32,2.32,0,0,0,2.28-.24C54.15,32.25,54.23,31.6,53.66,31.25Zm3.53,8a4.37,4.37,0,0,0,3.3-1.3,5.73,5.73,0,0,0,1.14-2.43c.36-1.59.08-2.33-.28-2.78a3,3,0,0,0-2.48-.91,4.59,4.59,0,0,0-3.11,1.07,5.16,5.16,0,0,0-1.38,2.69c-.22,1-.48,2.73,1.13,3.38A4.63,4.63,0,0,0,57.19,39.24Zm-.09-3.58c.27-1.21.59-2.22,1.41-2.22.65,0,.69.75.41,2a5.54,5.54,0,0,1-.61,1.69,1,1,0,0,1-.77.51c-.09,0-.6,0-.61-.77A5,5,0,0,1,57.1,35.66Zm7.48,3.42.09-.09c.13-.7.16-.86.45-2.26.14-.67.44-2.13.58-2.66a2,2,0,0,1,.79-.24c.59,0,.52.52.49.73A24.33,24.33,0,0,1,66.52,37l-.14.63c-.11.47-.23.92-.33,1.39l0,.09c1.22-.07,1.57-.07,2.61-.05l.12-.09c.19-1.09.24-1.38.58-3l.16-.73c.32-1.42.49-2.14.25-2.72a1.43,1.43,0,0,0-1.46-.82,4.06,4.06,0,0,0-1.66.39l-.65.38.19-.72-.1-.12c-1.3.26-1.59.29-2.79.46l-.09.07a36.75,36.75,0,0,1-.78,4.28L61.87,39l.05.11C63.15,39.06,63.52,39.06,64.58,39.08Zm8.91.05c.08-.37.53-2.58.54-2.58s.38-1.62.41-1.68a.86.86,0,0,1,.24-.23h.18c1.68,0,3.59,0,5.08-1.1a5.42,5.42,0,0,0,2-3.21,5,5,0,0,0,.14-1.12,2.35,2.35,0,0,0-.41-1.43c-.76-1.07-2.27-1.09-4-1.09h-.86c-2.24,0-3.14,0-3.51,0l-.09.45-.8,3.72-2,8.27C72.36,39.09,73.16,39.09,73.49,39.13ZM75,32.53l.85-3.7,0-.19V28.5l.34,0,1.8.16a1.47,1.47,0,0,1,.78,1.86,2.72,2.72,0,0,1-1.41,1.86,4.47,4.47,0,0,1-2,.3h-.47Zm5.31,3.19c-.23,1-.49,2.72,1.12,3.34a3,3,0,0,0,1.43.26,2.28,2.28,0,0,0,1.37-.63c0,.15-.07.3-.11.44l.07.1c1.16,0,1.51,0,2.77,0l.11-.09c.18-1.07.35-2.12.83-4.17.23-1,.46-2,.7-2.94l0-.1c-1.29.23-1.64.29-2.88.46l-.09.08c0,.1,0,.19,0,.29a1.72,1.72,0,0,0-.91-.74,3.45,3.45,0,0,0-3,1.07A5.05,5.05,0,0,0,80.29,35.72Zm2.71.06c.27-1.18.59-2.18,1.42-2.18.52,0,.79.48.73,1.3,0,.2-.09.42-.14.66s-.18.7-.26,1a2.31,2.31,0,0,1-.31.61,1.41,1.41,0,0,1-1,.49c-.08,0-.59,0-.61-.75A5.17,5.17,0,0,1,83,35.78Zm14.16-3.9-.1-.12c-1.28.26-1.51.3-2.68.46l-.09.09a.43.43,0,0,0,0,0v0c-.87,2-.84,1.58-1.56,3.17v-.19l-.18-3.44-.11-.12c-1.34.26-1.37.3-2.61.46l-.1.09s0,.08,0,.13v0A15,15,0,0,1,90,34.32c.08.61.17,1.23.24,1.83.13,1,.19,1.51.34,3.05-.83,1.38-1,1.9-1.83,3.11h0l-.56.9a.5.5,0,0,1-.21.18.77.77,0,0,1-.37.06h-.31L86.8,45l1.6,0a2,2,0,0,0,1.85-1l1-1.72h0l.11-.12C92,40.7,97.16,31.88,97.16,31.88ZM80.29,52.23h-.68l2.51-8.3H83l.27-.85,0,1c0,.59.43,1.11,1.65,1h1.4l.49-1.6h-.53c-.31,0-.45-.08-.43-.24l0-1h-2.6a36,36,0,0,0-3.86.21,4.41,4.41,0,0,0-1.26.63l.25-.86H75.89l-.51,1.7-2.54,8.43h-.5L71.86,54h4.85l-.17.53h2.39l.16-.53h.67Zm-2-6.61c-.39.11-1.12.43-1.12.43l.65-2.12h1.93l-.47,1.55A5.71,5.71,0,0,0,78.3,45.62Zm0,3s-.6.08-1,.17a10.09,10.09,0,0,0-1.14.49l.67-2.21H78.8Zm-1.08,3.6H75.31l.56-1.86h1.94Zm4.67-5.15h2.8l-.4,1.31H81.48l-.42,1.42h2.48l-1.88,2.64a.77.77,0,0,1-.38.32,1.05,1.05,0,0,1-.5.14h-.69l-.47,1.56h1.79a2.19,2.19,0,0,0,1.9-1l1.29-1.76.27,1.79a.82.82,0,0,0,.47.6,1.58,1.58,0,0,0,.63.27l.62,0h.88L88,52.69h-.35a1.33,1.33,0,0,1-.6-.1c-.06-.07-.06-.19-.09-.37l-.28-1.79H85.53l.5-.6h2.83l.44-1.42H86.68l.41-1.31H89.7l.48-1.6H82.4ZM58.3,52.62,59,50.45h2.68l.49-1.62H59.44l.41-1.34h2.63L63,45.93H56.4l-.48,1.56h1.5L57,48.83h-1.5L55,50.47h1.49l-.87,2.88a.68.68,0,0,0,.16.7.75.75,0,0,0,.48.35,2.78,2.78,0,0,0,.69.09h3l.54-1.79-1.34.19C58.94,52.89,58.23,52.86,58.3,52.62Zm.31-10.4-.68,1.23a.84.84,0,0,1-1,.6h-.35l-.48,1.58h1.18a2.58,2.58,0,0,0,1.21-.32c.22-.11.28-.05.45-.21l.4-.35H63l.49-1.63H60.82l.47-.9ZM64,52.65c-.06-.09,0-.25.08-.58l1-3.33H68.7c.52,0,.9,0,1.15,0a2.42,2.42,0,0,0,.86-.29,1.59,1.59,0,0,0,.62-.58,4.89,4.89,0,0,0,.62-1.4l1.26-4.21-3.71,0a11.67,11.67,0,0,0-1.65.36,7.07,7.07,0,0,0-1.23.79L67,42.24h-2.3L61.45,52.89a5.65,5.65,0,0,0-.2.89c0,.19.24.39.4.53a1.51,1.51,0,0,0,.75.15c.29,0,.7,0,1.26,0h1.76L66,52.67l-1.58.14A.44.44,0,0,1,64,52.65Zm1.73-6.16h3.76l-.24.75a2.5,2.5,0,0,0-.49,0H65.54ZM66.53,44h3.79l-.28.9s-1.78,0-2.07,0a4.22,4.22,0,0,0-2,.89Zm2.85,5.77a.39.39,0,0,1-.15.23.75.75,0,0,1-.39.07h-.53l0-.92H66.11L66,53.59c0,.32,0,.51.27.66a4.54,4.54,0,0,0,1.93.21h1.4l.5-1.67-1.21.07-.41,0a.47.47,0,0,1-.16-.1c0-.06-.14,0-.13-.35V51.29l1.28,0a1.63,1.63,0,0,0,1.23-.44,1.35,1.35,0,0,0,.41-.75l.21-1H69.6Z" class="e"/>
</svg>
