<svg xmlns="http://www.w3.org/2000/svg" viewBox="0 0 125.43 78.39">
    <defs>
        <style>
            .a{fill:#f9f9f9;}.b{fill:#0066b2;}.c{fill:#f9a533;}
        </style>
    </defs>
    <title>
        VISA
    </title>
    <rect width="125.43" height="78.39" class="a" rx="4.18" ry="4.18"/>
    <polygon points="57.72 50.97 51.59 50.97 55.42 27.44 61.55 27.44 57.72 50.97" class="b"/>
    <path d="M46.44,27.44,40.6,43.62l-.69-3.48h0L37.84,29.56a2.61,2.61,0,0,0-2.9-2.12H25.28l-.11.4a22.81,22.81,0,0,1,6.41,2.69L36.9,51h6.39L53,27.44Z" class="b"/>
    <path d="M94.63,51h5.63l-4.9-23.53H90.43a2.82,2.82,0,0,0-2.83,1.75L78.46,51h6.39l1.28-3.49h7.79Zm-6.74-8.32,3.22-8.81,1.81,8.81Z" class="b"/>
    <path d="M78.94,33.1,79.82,28a17.79,17.79,0,0,0-5.51-1C71.26,27,64,28.35,64,34.81c0,6.08,8.48,6.15,8.48,9.35s-7.6,2.62-10.11.6l-.91,5.29a17.11,17.11,0,0,0,6.91,1.33c4.18,0,10.49-2.17,10.49-8.06,0-6.12-8.55-6.69-8.55-9.35S76.32,31.65,78.94,33.1Z" class="b"/>
    <path d="M39.91,40.14,37.84,29.56a2.61,2.61,0,0,0-2.9-2.12H25.28l-.11.4a23.73,23.73,0,0,1,9.09,4.56A18.39,18.39,0,0,1,39.91,40.14Z" class="c"/>
</svg>
